<svg xmlns="http://www.w3.org/2000/svg" width="101" height="102.6" viewBox="0 0 101 102.6">
  <path d="M70.2 14.6c.4-.2.7-.4.9-.6.4-.4.9-.7 1.3-1.1.1-.1.3-.2.4-.1.2.1.2.2.1.4-.1.6-.3 1.2-.3 1.8-.1 1.1-.3 1.1 1 1 1.4-.1 2.7-.6 4-1.2 1.1-.6 2-1.3 3-2 .4-.3.9-.6 1.3-1 .2-.2.4-.3.7-.3.4-.1.5 0 .4.4-.1.4-.2.8-.3 1.3-.4 1.4-.7 2.8-.8 4.2v2.9c0 .9.2 1 1 .8 1.4-.2 2.9-.5 4.3-1 .2-.1.3-.1.5-.2.1-.1.3-.1.4 0 .1.1.2.3.1.4-.6.9-1 1.9-1.4 2.9-.3.7-.5 1.4-.7 2.1-.1.2 0 .4.2.5.5.3 1.1.3 1.7.4 1.3.2 2.6.4 3.9.4 1.1 0 2.2-.2 3.2-.3.2 0 .3-.1.5.1s0 .3-.1.5c-.1.3-.4.6-.7.8-1.2 1-2.3 2.1-3.3 3.3-1 1.3-1.8 2.7-2.1 4.3-.1.5-.1.5.5.6h2.3c.1 0 .2 0 .3.1.2.2.1.4-.1.5-.5.4-1 .9-1.5 1.3-.2.2-.4.4-.5.6.7.7 1.4 1.1 2.3 1.5 1.3.6 2.6.9 3.9 1 1.2.1 2.4.1 3.7.2.2 0 .4.1.6.2.4.2.4.3 0 .6-1 .7-2.1 1.4-3.1 2.3-1.1.9-2 2-2.9 3.1-.7.9-.7 1 .3 1.6 1.3.8 2.7 1.6 4.2 2.1.2.1.3.1.3.4 0 .2-.1.3-.3.3-1.9.5-3.4 1.3-4.9 2.3l-.1.1c-.2.1-.2.2-.1.4.1.3.3.6.5.9 1 1.1 2 2.3 3.2 3.3.9.7 1.8 1.3 2.7 2 .1.1.2.1.3.2.2.1.2.3 0 .4-.2.1-.4.2-.7.3-1 0-2 .1-3 .1-1.9.1-3.6.5-5.3 1.4-.6.3-1.1.7-1.6 1.2.2.4.5.6.7.8.4.4.9.7 1.3 1.1.1.1.3.2.2.4-.1.2-.2.2-.4.2h-2.3c-.5 0-.5.1-.4.5.5 2.1 1.5 3.8 2.9 5.3.9.9 1.8 1.7 2.7 2.6.2.2.4.4.5.7.1.4 0 .6-.3.5-.9-.1-1.7-.1-2.6-.2-.9-.1-1.9 0-2.8.1-.9.1-1.7.2-2.6.4-.1 0-.3.1-.4.1-.9.2-1 .3-.7 1.2.5 1.5 1.1 3.1 2 4.4.1.2.1.3 0 .5-.1.1-.3.1-.4 0-1.3-.5-2.7-.8-4.1-1-.4-.1-.8-.2-1.2-.2-.2 0-.3.1-.3.2-.1.3-.2.7-.2 1 .1.8 0 1.7.1 2.5.1 1.3.3 2.5.6 3.7.1.6.3 1.1.5 1.7.1.4 0 .5-.4.4-.3-.1-.5-.2-.7-.4-1-.8-2-1.5-3-2.3-1.6-1.1-3.4-1.8-5.3-1.9-.8-.1-.9 0-.8.8.1.6.2 1.3.4 1.9 0 .2.1.4-.1.5-.2.1-.3 0-.5-.1-.7-.6-1.3-1.2-2.2-1.7-.4.5-.6 1.1-.8 1.6-.6 1.7-.7 3.5-.6 5.3.1 1.1.3 2.2.4 3.2 0 .3 0 .5-.1.8-.1.4-.3.4-.6.1l-.8-.8c-1.5-1.7-3.4-3-5.4-4.1-.1-.1-.2-.1-.3-.2-1-.5-1-.4-1.4.5-.6 1.5-1.1 3-1.3 4.5 0 .2-.1.3-.3.4-.2 0-.3-.1-.4-.2-.8-1.5-1.9-2.9-3.1-4.1-.4-.4-.4-.4-.8-.1l-.6.6c-1.7 2-3.1 4.2-4.1 6.7 0 .1-.1.2-.1.3-.1.2-.3.2-.4 0-.2-.3-.3-.5-.4-.8l-.9-3.9c-.6-2-1.6-3.7-3.1-5-.3-.3-.3-.3-.6 0-.5.6-.8 1.4-1.2 2-.1.2-.2.3-.4.3s-.3-.2-.3-.4c-.1-.7-.2-1.4-.4-2-.2-.7-.2-.7-.9-.4-1.2.5-2.2 1.2-3.1 2.1-1 1-1.8 2.2-2.6 3.4-.3.5-.6 1-.9 1.4-.1.2-.2.4-.4.5-.1.1-.2.2-.4.2-.2-.1-.2-.3-.2-.4 0-.6-.1-1.1-.2-1.7-.1-1.6-.5-3.2-1-4.7-.2-.6-.4-1.1-.6-1.7-.4-.9-.5-.9-1.3-.4-1.4.8-2.8 1.6-4 2.7-.1.1-.2.2-.4.1-.1-.1-.2-.2-.2-.4.3-1.2.3-2.3.4-3.5 0-.6-.1-1.2-.1-1.8 0-.2-.1-.4-.3-.4-.3-.1-.5 0-.8 0-2.7.4-5.2 1.2-7.6 2.5-.1 0-.2.1-.3.1-.2.1-.4 0-.4-.3s.1-.6.2-.9l1.8-3.6c.5-1.1.8-2.3.9-3.6.1-.8 0-1.5-.1-2.2-.1-.4-.1-.5-.5-.3-.7.2-1.5.5-2.2.7-.2.1-.3.1-.5 0-.2-.2-.1-.3 0-.5.4-.8 1-1.5 1.3-2.4-.9-.3-1.8-.6-2.7-.6-2-.2-3.9.3-5.7.9l-1.8.6c-.2.1-.4.1-.6.1-.4 0-.5-.2-.3-.6.3-.4.6-.9.9-1.3 1.2-1.6 2-3.4 2.7-5.3.1-.4.3-.8.4-1.2.1-.5 0-.6-.5-.7-1.3-.3-2.7-.6-4.1-.6-.4 0-.7-.1-1.1 0-.1 0-.3-.1-.3-.2s-.1-.3.1-.4c.9-.6 1.6-1.5 2.4-2.3.5-.5.9-1.1 1.4-1.7.1-.2.1-.3 0-.5-.3-.3-.6-.5-.9-.7-2.2-1.4-4.6-2.3-7.1-2.8-.1 0-.2 0-.3-.1-.2-.1-.3-.3-.1-.4.2-.2.5-.4.8-.5 1.2-.5 2.5-1 3.6-1.6 1.8-.9 3.3-2.2 4.4-3.9-.4-.4-.4-.5-.4-.6v-.1c-.8-.4-1.7-.7-2.5-1-.2-.1-.3-.1-.3-.3 0-.2.1-.3.3-.3.8-.3 1.7-.6 2.6-1-.3-.6-.7-1.2-1.2-1.7-1.4-1.6-3.2-2.6-5.1-3.4-.7-.3-1.3-.6-2-.8-.3-.1-.5-.3-.7-.5-.2-.4-.1-.6.2-.7.5-.1.9-.3 1.4-.4 2.2-.5 4.2-1.5 6.2-2.7 1-.6 1.1-.7.3-1.7-1-1.2-2-2.4-3.2-3.4-.2-.1-.2-.2-.1-.4s.2-.3.4-.2c.7.1 1.3 0 2-.1 1.1-.1 2.2-.3 3.3-.5.4-.1.4-.2.4-.6 0-.2 0-.4-.1-.5-.5-1.2-.9-2.5-1.5-3.7-.6-1.2-1.5-2.4-2.2-3.5-.1-.2-.4-.3-.3-.6.2-.3.5-.2.8-.2.6.1 1.1.3 1.7.5 1.1.4 2.3.7 3.5.9 1.7.3 3.4.2 5-.4.2-.1.3-.2.2-.4L16.9 23c-.1-.2-.2-.3-.1-.5.2-.2.3-.1.5 0 .7.3 1.5.5 2.2.8.3.1.4 0 .4-.3.2-1.1.1-2.1 0-3.2-.3-1.7-1-3.3-1.8-4.8-.3-.5-.5-1.1-.8-1.6-.1-.2-.2-.5-.2-.7 0-.3.1-.5.5-.3.5.2 1 .5 1.6.7 1.7.8 3.5 1.4 5.4 1.7.5.1 1 .2 1.5.2s.5-.1.6-.6c.1-1.2.1-2.3 0-3.5-.1-.5-.1-1.1-.2-1.6 0-.2 0-.4.2-.5.2-.1.3.1.4.2 1 .8 2 1.5 3.1 2.2.4.2.9.5 1.3.7.2.1.4.1.5-.1.2-.3.3-.5.4-.8.5-1.5 1.1-3 1.3-4.6.1-1 .2-2.1.3-3.1V3c.1-.3.2-.4.5-.2s.4.4.6.6c.7 1.1 1.4 2.2 2.2 3.3 1.2 1.6 2.7 2.9 4.5 3.6.6.2.6.2.7-.4.1-.7.3-1.3.4-2v-.2c0-.2.1-.3.3-.4.2 0 .3.1.3.3.3.6.7 1.2 1 1.8.1.2.2.4.5.6.9-.8 1.7-1.7 2.3-2.7.9-1.5 1.2-3.1 1.6-4.7.1-.6.3-1.1.4-1.7.1-.3.2-.5.3-.7.3-.3.4-.3.6.1l.6 1.2c.8 1.7 1.8 3.3 3 4.8.3.4.6.9 1 1.2.4.5.5.5 1-.1 1.1-1.2 2.2-2.6 3-4 .1-.2.2-.2.4-.2s.2.2.3.4c.3 1.7.8 3.4 1.5 5 .1.4.1.4.6.3.3-.1.6-.2.8-.3 1.4-.9 2.9-1.7 4.1-2.9.6-.6 1.3-1.2 1.9-1.9.2-.2.3-.5.6-.3.3.1.3.5.3.7-.1.8-.2 1.5-.3 2.3-.2 1.9-.4 3.9.2 5.8.2.8.6 1.5 1 2.3zm13.2 36.6c.1-.8 0-1.7 0-2.6-.1-2.1-.6-4.1-1.2-6.1-.3-.9-.7-1.8-1-2.7-.7-2.3-1.8-4.4-3.1-6.5-.7-1.1-1.5-2.1-2.4-3.1-.7-.8-1.3-1.6-2-2.3-1.3-1.3-2.8-2.5-4.4-3.5-.9-.6-1.9-1.1-2.9-1.7-2.4-1.4-5-2.6-7.7-3.2-.9-.2-1.8-.3-2.7-.5-1.3-.3-2.7-.4-4-.5-1-.1-2 0-3 .1-.6 0-1.3.1-1.9.2-.9.1-1.7.4-2.6.5-2.3.3-4.6 1-6.8 1.9-1.4.6-2.8 1.4-4.1 2.2-2.5 1.4-4.5 3.2-6.4 5.3-.6.6-1.1 1.3-1.6 2-1.4 1.5-2.5 3.2-3.5 4.9-1.1 1.8-1.7 3.8-2.4 5.8-.6 1.6-1 3.3-1.2 5.1-.1 1.3-.2 2.5-.3 3.8 0 .5.1.9.1 1.4-.1.8 0 1.5 0 2.3.1 1.6.2 3.2.6 4.8.4 1.7 1 3.2 1.5 4.8.9 2.5 2.2 4.8 3.8 6.9.6.8 1.3 1.5 1.9 2.3 2 2.5 4.2 4.6 6.9 6.3.6.4 1.2.7 1.8 1.1 1.5 1 3.2 1.7 4.9 2.3 2.4.8 4.9 1.2 7.3 1.6 1.1.2 2.2.2 3.2.3.9.1 1.8.1 2.7 0 1.1-.1 2.3-.3 3.4-.5 2.7-.4 5.3-1.2 7.7-2.3 1.1-.5 2.2-1.2 3.3-1.8 1.6-.9 3.2-1.9 4.6-3.1.9-.7 1.7-1.5 2.5-2.3.6-.7 1.1-1.4 1.7-2 1.6-1.8 2.8-3.7 3.8-5.8 1.1-2.5 2.1-5.1 2.8-7.7.3-1.3.6-2.6.7-4v-3.7zm16.5 9.7c-.2-.2-.4-.4-.6-.5-1.3-.9-2.6-1.9-3.6-3.1-.6-.8-1.4-1.4-1.9-2.4-.1-.2-.2-.2-.4-.1-.4.3-.8.5-1.2.8-.4.3-.4.3-.2.8.6 1.2 1.4 2.2 2.6 2.9.1.1.3.1.3.3 0 .2-.2.3-.4.4h-.3c-.6.1-1.2.1-1.8.3-1 .2-1.9.6-2.5 1.4-.4.5-.6.4-.9-.1 0-.1-.1-.2-.1-.3-.3-1-.9-1.9-1.6-2.7-.5-.5-.5-.7.2-.9h.1c1-.4 1.7-1 2.5-1.7-.1-.2-.3-.3-.4-.4-.4-.4-.4-.4-.8 0-1.1.9-2.3 1.4-3.6 1.7-.4.1-.7.1-1.2.2.4.3.6.4.9.7.8.7 1.6 1.6 1.8 2.7.1.2.1.4.5.3.2-.1.4.1.5.4.4.9 1 1.6 1.7 2.2.2.2.4.2.6 0l.2-.2c1.4-1.1 2.9-1.7 4.6-2 1.4-.3 2.9-.3 4.3-.4.2-.2.5-.1.7-.3zm.1-19.2c-.2-.2-.4-.2-.6-.2-1 0-2.1-.1-3.1-.2-.6-.1-1.3-.1-1.9-.3-1.5-.4-3-1-4.2-2-.2-.2-.4-.2-.6 0-.7.7-1.2 1.4-1.6 2.2-.1.2-.3.4-.5.3-.3-.1-.4.1-.5.3-.4 1.4-1.3 2.4-2.5 3.1-.1.1-.2.1-.1.2.5.1.9.2 1.4.3 1.1.2 2.1.7 2.9 1.3 1 .8.6.8 1.5-.1v-.1c-.8-.8-1.6-1.4-2.7-1.8-.5-.2-.5-.4-.2-.8.7-.7 1.2-1.4 1.5-2.4.1-.3.2-.6.3-.8.2-.4.5-.5.8-.1.7.9 1.6 1.3 2.6 1.5l1.8.3c.2 0 .3.1.5.2.2.2.2.3 0 .5-.1.1-.2.1-.3.1-1.1.7-2 1.7-2.5 2.9-.1.2-.2.3 0 .5.5.3.9.7 1.4 1 .2.1.3 0 .4-.1.1-.2.2-.4.4-.6 1.2-1.5 2.5-3 4.1-4.1.6-.3 1.1-.6 1.7-1.1zm-5.5 33.9l.1-.1c-.2-.2-.4-.4-.6-.5-.8-.7-1.5-1.4-2.3-2.2-1-1-1.8-2.2-2.3-3.5-.3-.7-.4-1.3-.6-2 0-.2-.1-.3-.3-.3-1 0-1.9.2-2.8.7-.3.1-.5.1-.6-.1-.2-.3-.3-.2-.5-.1-1.2.8-2.5 1-3.8.9-.1 0-.3-.1-.4 0v.1c0 .1.1.1.2.2 1.1 1.3 2 2.7 2.2 4.4 0 .1 0 .4.2.4.3 0 .6 0 .9-.1.1 0 .1-.1.1-.2v-.4c-.3-.9-.4-1.8-.9-2.6-.3-.4-.2-.6.4-.7 1-.1 1.9-.3 2.7-.9.2-.2.5-.3.8-.4.4-.2.6 0 .6.4v.1c0 1.1.4 2 1.1 2.8.4.5.8.9 1.2 1.4.2.2.2.4.1.6-.1.2-.3.1-.5.1h-.2c-1.3-.1-2.5.1-3.7.7-.2.1-.3.2-.2.4.1.6.3 1.1.4 1.7.1.2.2.2.3.1.7-.4 1.4-.4 2.2-.5 1.7-.3 3.5-.4 5.2-.2.3-.2.7-.1 1-.2zM80.2 34.3c1.6-.1 3.1 0 4.4.9.2.1.3.1.4-.1.1-.2.3-.3.6-.2.9.4 1.8.6 2.8.7.2 0 .3 0 .4-.2 0-.1.1-.2.1-.3.4-1.8 1.2-3.4 2.4-4.7.8-.9 1.7-1.8 2.7-2.6.2-.2.5-.4.7-.7-.3-.1-.5-.1-.7 0-1.5.2-3.1.2-4.6 0-1.1-.2-2.2-.2-3.3-.7-.2-.1-.3 0-.3.2-.2.5-.3 1.1-.4 1.7 0 .2 0 .3.2.4.4.2.8.4 1.3.5.9.2 1.8.3 2.7.1.2 0 .3-.1.4.1.1.2 0 .3 0 .5-.1.1-.2.3-.3.4-.3.4-.7.7-1 1.1-.7.8-1.1 1.7-1.1 2.8 0 .6-.2.7-.8.5-.2-.1-.3-.2-.5-.3-.8-.5-1.7-.8-2.7-.9-.9-.1-.9-.1-.5-1 .4-.8.5-1.6.7-2.5 0-.1.1-.4-.1-.4-.3-.1-.6-.1-.9 0-.2 0-.2.3-.2.5-.2 1.4-.9 2.6-1.8 3.7-.1-.1-.3.2-.6.5zM1.1 59.1c.2.2.5.2.7.3 1.1.3 2.2.6 3.2 1.1 1.3.7 2.7 1.2 3.9 2.3.1.1.2.1.3 0 .4-.5.7-1 1-1.4.1-.1.1-.3 0-.4-.3-.3-.7-.7-1.1-.9-.8-.5-1.7-.9-2.6-1.1-.3-.1-.4-.3-.2-.5.1-.1.2-.2.4-.3.3-.1.6-.3.8-.4 1.2-.6 2.3-1.4 2.7-2.8.1-.3.2-.3.5-.2.1.1.2.2.4.3.3.3.5.7.9 1 .6.5 1.2.9 1.8 1.2.4.2.4.4.1.7-.1.1-.2.2-.3.2-.7.6-1.2 1.4-1.6 2.2-.2.2-.1.4.2.4.1 0 .1 0 .2.1.6.1.6.1.9-.4.7-1.2 1.7-2.1 2.9-2.8.3-.2.6-.3.9-.6-.3-.2-.6-.1-.9-.3-1.1-.5-2.1-1-2.7-2-.1-.2-.2-.4-.5-.1-.2.2-.4.1-.6-.1-.6-.7-1.4-1.1-2.2-1.5-.4-.2-.4-.2-.7.2-.6 1-1.4 1.9-2.3 2.6-1.2 1-2.7 1.6-4.1 2.3-.8.3-1.4.5-2 .9zM17 45.5c-.1-.2-.2-.2-.4-.3-1.3-.8-2.5-1.6-3.3-2.9-.5-.8-.3-.7-1.2-.3-.3.1-.3.3-.1.5.5.8 1 1.7 1.7 2.3.5.4.4.5-.1.8-.9.5-1.7 1-2.3 1.8-.2.2-.3.4-.6.6-.4.3-.6.2-.7-.2-.3-1.1-1.1-1.8-2-2.4-.5-.3-1-.5-1.4-.8-.1-.1-.2-.1-.3-.2-.1-.1-.2-.2-.1-.4.1-.1.2-.2.3-.2.5 0 .9-.2 1.3-.4.9-.4 1.6-.9 2.3-1.6.1-.2.2-.3.1-.5-.3-.4-.6-.9-.9-1.3-.2-.2-.3-.3-.5-.1-.2.3-.5.4-.8.6-2 1.2-4 2.2-6.3 2.7-.2 0-.5.1-.7.3.6.3 1.3.5 1.9.8 1.1.5 2.3 1 3.3 1.7 1.3.9 2.3 1.9 3.1 3.3.2.4.2.4.6.2.9-.4 1.7-.8 2.3-1.5.2-.2.4-.3.6-.1.3.2.4.1.5-.1.7-1 1.7-1.6 2.9-2 .3-.2.6-.1.8-.3zm4.2-11.3c0-.1 0-.2-.1-.2-.9-1.1-1.4-2.3-1.3-3.8v-.3c0-.1-.1-.2-.2-.2-.4 0-.5-.2-.5-.6-.1-.9-.4-1.8-.8-2.6-.1-.2-.2-.3-.4-.2-.1 0-.2.1-.3.1-1.6.5-3.2.6-4.9.3-1.6-.2-3.1-.8-4.6-1.2-.1 0-.3-.2-.5 0 1.8 2.4 3.1 5 3.8 7.9.6 0 1.2-.2 1.8-.4.2-.1.4-.2.3-.4-.1-.4-.1-.9-.2-1.3-.3-.9-.7-1.8-1.3-2.5-.2-.3-.2-.4.2-.6.1-.1.3 0 .4 0 .5.1 1.1.2 1.6.3 1.1.2 2.2.1 3.2-.5.3-.2.5-.1.6.3v1.6c.1.8.3 1.5.7 2.2.2.4 0 .6-.4.6h-.7c-.9.1-1.7.4-2.6.7 0 .2.1.3.2.5.3.5.3.6.8.4 1.4-.5 2.7-.5 4.2-.3.3.1.6.2 1 .2zm0 34.2c-.4.1-.8.1-1.2.2-1.2.1-2.4.2-3.6-.2-1.1-.3-.8-.6-1.4.7 0 0 0 .1.1.1 0 0 .1.1.2.1.9.3 1.8.7 2.9.6.6 0 .7.2.5.7-.4.9-.7 1.8-.6 2.8 0 .3 0 .6-.1.9-.1.4-.3.5-.6.3-1-.6-2-.7-3.1-.5-.6.1-1.2.2-1.8.4-.2.1-.4 0-.6-.2-.1-.2.1-.3.2-.5.9-1.1 1.3-2.3 1.4-3.7 0-.2 0-.3-.3-.4-.6-.2-1.2-.4-1.9-.5-.1.4-.1.8-.2 1.1-.4 1-.7 2-1.2 2.9-.5 1.2-1.2 2.2-1.9 3.3-.1.2-.3.4-.4.7H8c.9-.3 1.8-.6 2.7-.8.8-.2 1.7-.5 2.5-.5 1.5-.1 3 0 4.5.5.3.1.4 0 .5-.2.4-.8.7-1.7.8-2.6 0-.2.1-.5.3-.5.6 0 .5-.4.4-.7-.1-1 .2-1.8.6-2.7.4-.5.6-.9.9-1.3zm-3.6-55.1c.3.6.6 1.2.9 1.7.6 1.2 1.2 2.3 1.5 3.6.4 1.5.6 3.1.3 4.7 0 .2 0 .3.2.4.9.2 1.9.5 2.9.3.3 0 .5.1.5.3.1.4.3.4.6.3 1.3-.3 2.5 0 3.7.5.1.1.2.2.4.1v-.1c0-.1-.1-.2-.1-.3-.5-1.5-.8-3.1-.5-4.8.1-.3-.1-.5-.3-.5-.1 0-.3 0-.4-.1-.2-.1-.3 0-.4.2-.2 1-.3 2-.1 3 .1.5-.1.6-.6.5-.9-.2-1.8-.4-2.7-.1-.3.1-.7.1-1 .1-.5 0-.6-.2-.4-.6.2-.4.2-.8.3-1.3 0-1-.2-1.8-.6-2.7-.1-.3-.3-.7-.4-1 0-.1 0-.3.1-.4.1-.1.3-.1.4 0 .1 0 .1.1.2.1 1.2.6 2.4.9 3.7.7.3 0 .4-.1.4-.4.1-.5.1-1 .1-1.5 0-.4 0-.4-.4-.4-.5 0-1-.1-1.5-.2-1.8-.3-3.5-.8-5.1-1.5-.6-.1-1.1-.4-1.7-.6zm44.7 70.1c.2.4 0 .9 0 1.4 0 1.2-.3 2.3-.8 3.3-.4.8-.4.8.3 1.3.2.1.3.1.4-.1.5-.9 1-1.7 1.1-2.7.1-.6.3-.6.8-.3.8.5 1.6 1 2.5 1 .3 0 .6.1.9.2.5.2.6.3.2.7-.7.9-1 1.9-1 3 0 .6 0 1.1.1 1.7 0 .2-.1.5-.3.6-.2.1-.3-.2-.5-.3l-.4-.4c-.8-.8-1.8-1.3-2.9-1.6-.2 0-.4 0-.5.2-.2.5-.5 1-.7 1.4-.1.2-.1.4.2.4.3 0 .6.2.9.4 2 1.1 3.9 2.4 5.5 4.2.1.2.3.4.6.4-.1-1.1-.3-2.1-.4-3.2-.1-1.3-.1-2.6.1-3.9.2-1.1.5-2.1 1.1-3 .1-.2.2-.4 0-.6-.8-.6-1.6-1.1-2.5-1.3-.3-.1-.5-.2-.4-.5 0-.3-.1-.3-.3-.4-1.5-.1-2.6-.9-3.6-1.9-.1 0-.2-.1-.4 0zm-12.5 18.1c.2-.3.3-.5.4-.7.8-1.8 1.9-3.5 3.2-5 .4-.5.7-1 1.3-1.3.2-.1.2-.2 0-.4L53.6 93c-.2-.2-.4-.2-.6 0-1.2.8-2 1.8-2.5 3.1-.1.1-.1.3-.3.3-.2 0-.3-.1-.4-.3-.1-.1-.1-.2-.1-.3-.2-.5-.3-1.1-.5-1.6-.4-.9-.9-1.7-1.8-2.3-.6-.3-.6-.6 0-.9.1-.1.2-.1.3-.1 1-.5 1.8-1.3 2.5-2.2.2-.3.5-.4.7 0 .4.8 1 1.4 1.7 2 .8.7.5.6 1.2-.2.1-.2.1-.3-.1-.4-.3-.3-.7-.6-1-.9-.8-1-1.4-2.1-1.8-3.3 0-.1 0-.2-.2-.2l-.1.1c-.6 1.3-1.4 2.5-2.8 3.1 0 0-.1 0-.1.1-.1.1-.2.2-.1.3.2.3.1.5-.2.7-.8.5-1.4 1.2-1.9 2-.3.4-.3.4.1.7 1.4 1.2 2.3 2.7 3 4.4.4 1.2.7 2.5 1 3.8 0 0 0 .3.2.6zM17.6 89.2c.3 0 .6-.1.8-.2 2.4-1.1 4.9-1.9 7.6-2 .2 0 .3-.1.3-.3 0-.6-.1-1.1-.2-1.7 0-.1-.1-.2-.2-.2-.4 0-.8-.1-1.2-.1-1 .1-2 .3-2.9.8-.2.1-.3.2-.5 0-.1-.1-.1-.3-.1-.5 0-.1.1-.2.1-.3l.6-1.5c.3-1 .4-1.9 0-2.9-.2-.6-.1-.7.5-.7.1 0 .2 0 .3.1 1.1.3 2.3.2 3.4-.1.4-.1.6.1.5.4-.2.9-.1 1.8 0 2.7.1.7.1.7.8.5h.1c.3-.1.4-.2.3-.5-.1-.4-.1-.8-.1-1.2 0-1.2.3-2.4.7-3.6.1-.1.2-.3.1-.4-1.4.7-2.8 1-4.3.6-.2-.1-.3 0-.4.2-.1.3-.2.4-.5.4-1-.2-1.9.1-2.8.3-.3.1-.4.2-.3.5.1.6.2 1.1.1 1.7 0 .9-.2 1.8-.4 2.7-.3 1.3-1 2.5-1.6 3.8-.1.4-.4.9-.7 1.5zM49.8 1.1c-.2.1-.2.2-.2.4-.3 1.1-.5 2.2-.8 3.3-.3 1.2-.8 2.3-1.5 3.3-.5.8-1.1 1.5-1.8 2.1-.3.3-.3.3-.1.7.5.8 1.1 1.5 1.9 2 .2.1.3.3.2.4-.3.4 0 .5.3.6 1.2.6 2 1.6 2.5 2.8.1.1 0 .3.3.3.2-.4.4-.9.5-1.3.4-1 1-1.9 1.8-2.6 1-.9.8-.5.2-1.5 0 0-.1 0-.1-.1-.8.7-1.7 1.3-2.2 2.4 0 .1-.1.2-.2.3-.2.2-.3.2-.5 0 0-.1-.1-.1-.1-.2-.6-.8-1.3-1.5-2.2-2-.3-.2-.6-.3-.8-.6-.2-.3-.2-.4.1-.6 1.1-.6 1.7-1.5 2.1-2.6.2-.5.3-1 .5-1.5.1-.2.2-.5.5-.5s.3.3.4.5c.5 1.3 1.3 2.3 2.4 3 .2.2.4.1.6-.1l1.1-1.1c.2-.2.2-.3 0-.5-.3-.2-.5-.4-.7-.6-1.4-1.6-2.7-3.3-3.6-5.4-.2-.2-.4-.6-.6-.9zm18.9 3.2c-.6.5-1.1 1-1.6 1.4-1.6 1.5-3.4 2.8-5.5 3.6-.2.1-.3.2-.2.4.2.5.5 1 .7 1.6.1.2.2.2.4.2 1-.2 1.8-.6 2.6-1.2.4-.3.7-.6 1-.9.2-.3.4-.2.6.1.1.2.1.4.1.6-.1.5-.1 1-.1 1.5 0 1 .3 2 .9 2.8.4.5.3.8-.4.9H67c-.3.1-.7.1-1 .2-.7.2-1.4.5-2 1-.4.3-.7.2-.7-.3-.1-.9-.6-1.7-1-2.5-.3-.6-.3-.6-.9-.2-.4.3-.4.3-.2.8.7 1.2 1 2.4 1 3.8 0 .4.1.8 0 1.1h.1c.1 0 .1 0 .1-.1 1-1.1 2.2-1.8 3.7-1.9.2 0 .3-.1.3-.3 0-.3.1-.4.4-.5.9-.2 1.7-.7 2.5-1.3.3-.2.2-.3.1-.6-1.2-2.2-1.5-4.5-1.2-6.9.3-1 .5-2.1.5-3.3zm3.8 20.8c.2 0 .3-.1.4-.1 1.2-.7 2.4-1.3 3.8-1.4.3 0 .7 0 1-.1.2 0 .3-.1.3-.2 0-.3.1-.5.1-.8 0-.1-.1-.2-.2-.2-1 0-2 0-2.9.3-.1 0-.2.1-.3.1-.3.1-.4-.1-.4-.3v-.3c.1-1.1 0-2.1-.5-3.1-.1-.1-.1-.3-.2-.4-.1-.5.1-.7.6-.6 1.1.2 2.1-.1 3-.6.5-.3 1-.6 1.4-.9.1-.1.3-.1.4-.1.3 0 .5.1.3.4-.1.4-.2.7-.3 1.1-.1 1-.2 2 .2 3 .1.2.1.3.3.3.6 0 1.2 0 1.8-.1.2 0 .3-.1.2-.3-.2-.6-.1-1.2-.1-1.8-.1-2.1.2-4.1.8-6 .1-.2.2-.5.1-.8-.1.1-.2.1-.3.2-.6.5-1.2 1-1.8 1.4-1 .7-2 1.4-3.1 1.9-1.2.5-2.5.9-3.8.8-.4 0-.4 0-.5.5-.1.9-.1 1.8.1 2.7.1.3.1.5-.2.6-.3.1-.3.3-.2.6.4.9.5 1.8.4 2.8-.2.4-.3.9-.4 1.4zm.1 52.4c-.1 0-.1 0 0 0v.3c.3.9.4 1.8.2 2.7-.1.5-.2.9-.4 1.3-.1.2-.1.3.1.4.4.2.3.4.2.7-.2.8-.3 1.7-.1 2.6.1.5.1.5.6.5 2.2 0 4.2.8 6 2 .9.6 1.8 1.3 2.6 1.9.1.1.3.3.5.2v-.2c-.2-.9-.4-1.8-.6-2.6-.3-1.2-.3-2.5-.3-3.8 0-.6-.1-1.3.1-1.9.1-.2-.1-.3-.3-.4-.5-.1-1-.2-1.5-.1-.3 0-.4.1-.5.4-.4 1.3-.3 2.6.1 3.8.1.2.2.4 0 .5-.2.1-.4 0-.6 0-.1 0-.1-.1-.2-.1-.4-.3-.9-.5-1.3-.8-1-.5-2-.9-3.1-.6-.5.1-.6 0-.5-.5 0-.1.1-.3.1-.4.1-.4.3-.8.4-1.2.2-.7.1-1.5.1-2.2 0-.4.1-.5.5-.4.1 0 .2.1.3.1.9.4 1.8.3 2.7.4.4 0 .4 0 .4-.5v-.2c0-.5 0-.5-.5-.5-1.5 0-2.9-.4-4.2-1.2-.3 0-.6-.1-.8-.2zM34.3 98.8c.2-.1.3-.3.4-.5.6-.9 1.1-1.7 1.7-2.6 1.2-1.7 2.7-3 4.6-3.9.2-.1.4-.2.7-.3.2-.1.2-.2.2-.4-.2-.9-.5-1.8-1.1-2.6-.2-.3-.2-.5 0-.7.3-.2.1-.4 0-.5-.8-.7-1.1-1.7-1.4-2.7-.1-.4-.1-.8-.1-1.4-.3.4-.6.7-.8 1-.8.9-1.7 1.6-2.8 2.1-.3.1-.8.2-.9.4-.1.3.1.6.2 1l.1.1c1-.4 2-.7 2.9-1.4.5-.4.6-.3.8.2.3.9.6 1.8 1.3 2.6.2.2.5.4.6.7.1.4.1.5-.3.6-1.2.2-2.1.8-2.8 1.7-.3.4-.6.8-1 1.2-.2.2-.4.4-.6.4-.3-.1-.2-.4-.2-.6-.1-1.3-.5-2.5-1.3-3.6-.1-.2-.3-.2-.5-.1-.4.2-.7.3-1.1.5-.6.3-.6.3-.3.9.1.1.1.3.2.4.2.5.3 1 .5 1.4.6 1.7 1 3.5 1.1 5.3-.2.2-.2.5-.1.8zm4.8-79.5c0-.5 0-.8.1-1.1.2-1.1.6-2.2 1.5-3 .2-.2.2-.3 0-.5s-.2-.4 0-.6c.6-.8.9-1.7 1.1-2.6 0-.2 0-.3-.2-.4-.1 0-.2-.1-.3-.1-1.7-.7-3-1.7-4.2-3.1-.9-1.1-1.6-2.3-2.4-3.5-.1-.2-.2-.4-.4-.5-.2.7-.2 1.4-.3 2-.3 2.2-.9 4.3-1.9 6.3-.1.2-.1.3.1.4.2.1.5.2.7.4 1.1.5 1.2.5 1.8-.6 0-.1 0-.1.1-.2.4-.9.7-1.8.7-2.9 0-.2 0-.3.2-.4.2-.1.3 0 .4.1.3.2.4.6.7.8.4.4.7.9 1.1 1.2.7.6 1.4 1 2.3 1.1.3 0 .3.2.3.4l-.3.6c-.7.7-1.1 1.5-1.5 2.3-.1.2-.1.5-.2.7-.1.3-.3.4-.5.2-.1 0-.1-.1-.2-.2-.8-.7-1.7-1-2.7-1.4-.1 0-.3-.1-.3 0-.1.3-.2.6-.2.9 0 .1.1.1.2.2s.3.1.4.2c1.3.5 2.4 1.3 3.3 2.4.1.3.3.6.6.9zM5.9 35c0 .2.1.2.2.3.8.7 1.5 1.5 2.2 2.3 1 1.3 1.9 2.5 2.7 3.9.1.2.2.2.4.1.5-.2.9-.5 1.4-.7.7-.3 1.5-.6 2.3-.7 1.2-.2 2.3-.3 3.5-.3.2 0 .4.1.5-.1.1-.2-.2-.3-.3-.4-1.1-1-2.1-1.9-3-3.1-.6-.8-1-1.8-1.4-2.7-.2-.4-.2-.4-.6-.3-2.1.6-4.2 1.2-6.4 1.5-.4.1-.9.1-1.5.2zm-.1 32.6c.2.1.3.1.5.1.9 0 1.7.2 2.6.3 1.6.3 3.1.7 4.6 1.1.3.1.5.3.8.2.3-.1.2-.5.4-.7.1-.2.2-.3.2-.5.5-1.1 1.1-2.1 2-3 .7-.7 1.4-1.5 2.2-2.1.1-.1.2-.2.2-.3 0-.1-.2-.2-.3-.1-.4.1-.9 0-1.3 0-1.1 0-2.2-.2-3.3-.4-1-.3-1.9-.7-2.8-1.2-.3-.1-.4-.1-.6.2-1.1 1.8-2.3 3.6-3.8 5.1-.4.4-.9.8-1.4 1.3zm81.4-46.9c-.1-.1-.2-.1-.3-.1-2.5.8-5.2 1-7.8 1.2-.5 0-.5 0-.5.6 0 .7-.1 1.5-.2 2.2-.3 1.5-.9 2.8-1.6 4.1-.1.3-.3.5-.4.8-.1.1-.2.2-.1.3.1.1.3 0 .4 0h.1c1.1-.5 2.3-.7 3.5-1 .6-.1 1.2-.2 1.8-.2.7.1 1.5 0 2.2.2.2.1.4 0 .4-.3.1-1 .5-2 .8-3 .2-.9.5-1.9.9-2.7.2-.7.5-1.4.8-2.1zm0 61.2v-.2c-1.3-2.4-2-5-2.5-7.7-.1-.4-.1-.4-.5-.3-.7.1-1.4.2-2.1.2-1.2.1-2.4-.2-3.6-.5-.6-.2-1.3-.4-1.9-.6-.1 0-.2-.1-.3 0-.1.1 0 .2 0 .3 0 .1.1.1.1.2.8 1.5 1.6 3 1.9 4.8.1.8.2 1.5.2 2.3 0 .2 0 .5.3.4.9 0 1.8.1 2.8.2 1.7.1 3.3.4 4.9.9.3 0 .5.1.7 0zm11.1-30.6c-.1-.2-.2-.2-.3-.3-.9-.4-1.8-.9-2.7-1.4-1.4-.9-2.8-1.8-4-2.8-.2-.2-.3-.2-.5.1-.6.6-1.2 1.3-1.9 1.8-1.3 1-2.8 1.7-4.3 2.2-.2.1-.5.1-.5.3 0 .2.3.2.5.3 1.4.5 2.7 1.1 4 2 .8.6 1.5 1.3 2.2 2.1.1.2.2.3.5.1.7-.6 1.4-1.1 2.2-1.6 1-.7 1.9-1.3 3-1.8.5-.3 1.1-.7 1.8-1zM59 4.3c-.2 0-.2.1-.3.2-.5.8-1 1.5-1.6 2.2-1.1 1.3-2.3 2.6-3.6 3.7-.3.3-.3.3-.1.6.5.7 1.1 1.4 1.5 2.2.7 1.4 1.1 2.9 1.4 4.5 0 .2 0 .5.2.5s.3-.2.4-.4c.8-1.3 1.6-2.5 2.6-3.6.7-.7 1.6-1.2 2.4-1.8.2-.1.3-.2.2-.5-.6-.8-.9-1.8-1.3-2.7-.4-.9-.8-1.9-1.1-2.9-.3-.5-.5-1.2-.7-2zm0 93.9c.2-1 .5-1.9.8-2.9.6-1.7 1.4-3.3 2.2-4.8.1-.3.1-.4-.1-.5-.7-.4-1.3-.9-1.9-1.4-1.3-1.1-2.2-2.5-3.1-3.9-.1-.1-.1-.2-.2-.3-.1-.1-.1-.2-.2-.1-.1 0-.1.1-.2.2v.2c-.2 1.2-.5 2.4-.9 3.6-.4 1.2-1.2 2.2-1.9 3.2-.1.2-.3.4 0 .6.8.6 1.4 1.3 2 2 1.2 1.2 2.3 2.5 3.2 3.9 0 0 .1.2.3.2zM26.8 9.9c0 .3.1.5.1.7.1.9.2 1.8.1 2.7-.1 1.7-.1 3.3-.4 5 0 .2 0 .4.3.4.5 0 .9.2 1.3.3 1 .2 2 .7 2.9 1.2.9.6 1.8 1.2 2.6 1.9.1.1.2.2.3.1.2-.1.1-.2.1-.4-.1-.4-.1-.8-.2-1.2-.1-1.2-.2-2.3-.1-3.5.1-1 .4-1.9.7-2.9.1-.2.1-.4-.2-.5-1-.3-1.9-.8-2.9-1.3-.9-.4-1.7-.9-2.5-1.4-.8-.1-1.4-.6-2.1-1.1zm0 82.6c.1 0 .2 0 .3-.1 2.1-1.6 4.5-2.7 7-3.8.4-.2.4-.2.3-.6-.2-.8-.4-1.5-.6-2.3-.2-1.3-.1-2.7 0-4 .1-.4.1-.8.2-1.2 0-.1.1-.2-.1-.3-.1 0-.2 0-.3.1-.3.2-.5.5-.8.7-1.3 1-2.6 1.9-4.2 2.4-.6.2-1.1.3-1.7.4-.3.1-.4.2-.3.4.2.9.2 1.7.3 2.6.2 1.6.2 3.2.1 4.8-.1.3-.3.6-.2.9zm-9.9-41.3c-.2-.1-.3-.2-.5-.2-1.2-.6-2.4-1.4-3.4-2.3-.3-.2-.4-.2-.6 0-1.3 1-2.8 1.8-4.4 2.4-.2.1-.4.1-.5.3.4.3.8.3 1.2.5 1.3.7 2.7 1.2 3.8 2.2.2.1.3.2.5 0 1.1-1 2.3-1.8 3.6-2.4 0-.2.2-.3.3-.5zm74.6 14.9c-.4-.3-.7-.6-1-.8-1-1.1-2.1-2.1-2.9-3.4-.1-.2-.3-.3-.6-.2-.7.3-1.5.5-2.3.7-.8.2-1.5.3-2.3.4.1.1.1.2.2.2 1.1 1.1 2 2.3 2.7 3.7.1.2.2.2.4.1 1.2-.4 2.4-.5 3.6-.7.7 0 1.3.1 2.2 0zm-.2-29.6s0-.1 0 0c-.2-.1-.3-.1-.4-.1-1.8 0-3.5-.2-5.2-.8-.3-.1-.3 0-.4.2-.4.9-1 1.7-1.6 2.5-.4.5-.8.9-1.2 1.4.3.1.6.1.9.1 1.3.1 2.5.5 3.7.9.5.2.4.2.7-.2.3-.5.6-1 1-1.4.9-.9 1.6-1.9 2.6-2.6-.1.1-.1 0-.1 0zM17.5 79c.1.1.2.1.3 0 1-.5 2.2-.6 3.2-.9.7-.2 1.3-.1 2-.2.2 0 .3-.1.3-.3.1-1 .3-1.9.7-2.9.2-.6.4-1.2.7-1.8-.6.1-1.2.2-1.7.3-1 .2-2 .3-2.9.2-.4 0-.5 0-.6.4-.2 1.5-1 2.8-1.6 4.2 0 .4-.3.7-.4 1zm.1-55.5c-.1.2.1.4.2.5.7 1.2 1.1 2.4 1.6 3.7.1.3.2.7.3 1.1 0 .2.1.3.3.2.4-.1.9 0 1.3 0 1.1 0 2.1.2 3.1.5.1 0 .3.1.4-.1-.3-.6-.5-1.2-.7-1.8-.3-.8-.5-1.7-.6-2.6 0-.4-.2-.5-.5-.5h-.2c-1.6 0-3.1-.5-4.7-1-.2 0-.3-.1-.5 0zm50-1.5c.2 0 .3-.1.5-.2.3-.2.5-.3.8-.5 1-.6 2-1.1 3.1-1.4.2-.1.3-.2.2-.4-.1-.4-.1-.8-.1-1.2-.1-.7.1-1.3.1-2s0-1.3.2-2c0-.2.1-.3 0-.5-.1 0-.2 0-.3.1-1.4 1.2-2.9 2.2-4.6 2.9-.3.1-.2.3-.2.5.2.9.3 1.8.3 2.7-.1.6 0 1.3 0 2zm0 58.6c-.1 1.7 0 3.3-.4 4.9 0 .2.1.3.2.3 1 .3 1.8.9 2.6 1.4.6.4 1.2.8 1.8 1.3.1.1.2.3.5.3.1-.4-.2-.8-.2-1.3 0-1.5-.3-2.9 0-4.4.1-.3 0-.3-.3-.4-1-.3-1.9-.7-2.8-1.2-.4-.3-.9-.6-1.4-.9zM43.2 93.9c1.1-1.7 2.2-3.4 3.7-4.7-1-1.4-1.6-3-2.1-4.6-.1 0-.1 0-.1.1-1 1.3-2 2.5-3.3 3.5-.1.1-.1.2 0 .3.8 1.2 1 2.6 1.5 3.9.1.4 0 1 .3 1.5zm1.6-75.8c.1-.3.1-.5.2-.7.4-1.3.9-2.5 1.6-3.7.2-.4.3-.4-.1-.7-1.2-1.1-2.2-2.5-3.1-3.9-.1-.2-.1-.4-.4-.4-.1.3 0 .7-.1 1.1-.5 1.4-.7 2.9-1.5 4.3-.1.2-.1.3.1.4.8.6 1.5 1.3 2.2 2.1.3.4.7.9 1.1 1.5zm-26.2 50c.9 0 1.8-.2 2.7-.4.3-.1.3-.1.2-.4-.1-.2-.2-.4-.4-.6-.5-1-.9-2-1.3-3-.2-.4-.2-.4-.6-.2-.6.5-1.1 1-1.6 1.5-.6.6-1.2 1.3-1.6 2-.2.3-.1.4.2.5.8.5 1.6.7 2.4.6zm3-33.1c-.3-.3-.6-.2-.8-.3-1.5-.3-3-.4-4.5.2-.5.2-.5.2-.3.6.9 1.3 2 2.5 3.2 3.5.4.3.4.3.6-.1.5-1.4 1.1-2.7 1.8-3.9zm54.1-5.7c.3-.3.4-.6.6-.8.7-1.3 1.3-2.6 1.6-4 .1-.4 0-.4-.3-.4-.4 0-.8 0-1.2.1-1.2.2-2.3.7-3.3 1.3-.3.2-.6.3-.8.6 1.3.9 2.3 2 3.4 3.2zM55.7 18c0-.5-.1-.9-.3-1.3-.3-1.1-.6-2.1-1.1-3.1-.3-.6-.3-.6-.9-.2-.7.6-1.2 1.3-1.7 2.1-.4.7-.6 1.4-.8 2.1.1.2 0 .4.4.4 1.4 0 2.8.1 4.1.3.3.1.3-.1.3-.3zM19 62.1c.1-.2.1-.2 0-.3-.4-1.4-.9-2.7-1.1-4.1 0-.3-.2-.2-.4-.1-.7.3-1.3.7-1.9 1.1-.9.7-1.7 1.5-2.2 2.6 1.9.7 3.8.8 5.6.8zm58.1 16.4h.2c.6 0 .6 0 .5-.5-.3-1.6-1-3-1.8-4.4-.2-.3-.3-.3-.5-.1-.9 1-1.8 2.1-2.9 2.9-.2.1-.2.2 0 .4.2.1.4.3.7.4 1.1.7 2.4 1.3 3.8 1.3zm-58-38c-.8-.1-1.5 0-2.2 0-.9.1-1.9.2-2.8.5-.2.1-.5.1-.6.3.9 1.9 2.5 2.9 4.4 3.8.3-1.5.7-3 1.2-4.6zm60.3-6.1c1.3-1.3 2.3-2.6 2.7-4.4.2-.8.2-.8-.7-.8h-.1c-1.5.1-2.9.5-4.3 1-.1.1-.3.1-.4.3 1 1.2 2 2.4 2.8 3.9zm-2.8 37.8c.7.4 1.5.6 2.2.8.9.2 1.8.5 2.7.5.7 0 .7 0 .5-.6-.3-1.7-1.3-3.1-2.5-4.3-.2-.2-.3-.2-.4 0-.2.4-.4.8-.7 1.1-.4.8-1.1 1.6-1.8 2.5zm-42-55.7c-.2 0-.3.1-.3.4-.2 1.6-.1 3.2.2 4.8.1.4.1.4.5.2 1.2-.6 2.4-1.3 3.8-1.7.2-.1.2-.2.1-.3-.9-1.2-1.9-2.3-3.2-3-.4-.2-.8-.3-1.1-.4zM29.5 77c-.4.9-.7 1.7-.9 2.6-.2.9-.2 1.8-.1 2.6.1.6.2.6.7.4.8-.3 1.5-.8 2.2-1.2.6-.4 1.2-.8 1.7-1.3.3-.3.3-.3 0-.5-1.2-.8-2.4-1.6-3.6-2.6zm5.3 3.6c-.2 0-.2.1-.2.2-.2.8-.3 1.7-.3 2.5-.1.8 0 1.6.1 2.4.1.4.1.4.5.3 1.8-.6 3-1.9 4.1-3.3.1-.2.1-.3-.1-.3-1.3-.4-2.5-1-3.7-1.7-.2 0-.3-.1-.4-.1zM84 50.5c1.3-.2 4.4-1.8 5-2.6-.4-.3-.8-.7-1.3-.9-1.2-.7-2.5-.9-3.8-1.1-.3 0-.3 0-.3.4.2 1 .3 2.1.3 3.2 0 .3.1.6.1 1zM29.5 25.6c1.1-1 2.3-1.8 3.6-2.6.4-.2.4-.2 0-.5-.9-.8-2-1.5-3.1-2.2-.3-.2-.7-.3-1.1-.5-.2-.1-.3 0-.3.2 0 .1-.1.2-.1.3-.3 1.8.2 3.5 1 5.3zm26.2 59.1c0-.4 0-.4-.4-.4-.3 0-.5.1-.8.1-1.1.2-2.2.2-3.3.2-.3 0-.3.1-.3.4.1.2.1.5.2.7.5 1.4 1.2 2.7 2.4 3.7.4.3.5.3.7-.1.4-.8.7-1.6.9-2.4.4-.9.5-1.6.6-2.2zM84.1 52c-.1 0-.1.1 0 0-.2 1.6-.2 3.1-.5 4.5-.1.3.1.3.3.3 1.1-.2 2.1-.4 3.1-.8.7-.3 1.4-.8 2-1.4-1.5-1.3-3.2-2-4.9-2.6zM57.2 84c0 .2.1.3.1.4.6 1.1 1.3 2.1 2.2 3.1l.8.8c.2.2.4.2.5-.1.1-.3.4-.6.5-1 .5-1.4.6-2.8.5-4.2 0-.3-.1-.3-.4-.2-.7.3-1.5.5-2.3.7-.6.2-1.3.3-1.9.5zm4.5-64.1c.2-.4 0-.7.1-1 .1-.3-.1-.5-.1-.8 0-1.3-.3-2.4-.9-3.5-.3-.5-.3-.5-.7-.1-1.2 1.1-2.1 2.4-2.9 3.8-.1.1-.2.2-.1.4 1.6.2 3.2.6 4.6 1.2zM22.1 18v.1c0 .1.1.2.1.3.5 1.2.8 2.5.5 3.9-.1.3.1.3.3.3.5-.1.9-.2 1.4-.2.4 0 .9 0 1.3.1.5.1.5 0 .5-.4 0-.6 0-1.1.1-1.7 0-.5.4-1.1-.3-1.5v-.1c0-.4-.2-.3-.4-.3-1.1 0-2.1-.1-3.1-.5-.2 0-.3-.1-.4 0zm65.7 40.1c.8.9 1.4 1.9 1.7 3.1 1.2-1.3 2.7-1.6 4.2-1.8v-.2c-.9-.8-1.7-1.7-2.2-2.8 0-.1-.1-.2-.2-.1-.2.2-.4.1-.5 0-.1-.1-.3-.1-.4 0-.8.8-1.6 1.4-2.6 1.8zm-.9-24.3c.1-1.7 1-2.9 2.1-4-.2-.2-.5-.1-.7-.1-1 0-2-.2-2.9-.6-.2-.1-.3-.2-.4.1 0 .2-.2.2-.4.3-.2 0-.3.1-.3.3-.2 1-.4 1.9-.8 2.8.6.3 1.2.3 1.7.5.6.1 1.1.6 1.7.7zM22 84.6c.2 0 .4 0 .5-.1.4-.1.8-.3 1.2-.3.6-.1 1.2-.1 1.8-.1.1 0 .3.1.3-.1 0-.3.2-.4.4-.6.1-.1.1-.2.1-.3-.2-.9-.3-1.8-.2-2.7 0-.3-.1-.3-.4-.3-.9.1-1.8.3-2.8 0-.3-.1-.4 0-.3.4.2 1 .1 1.9-.2 2.9-.1.3-.2.7-.4 1.2zm25.6 6.7c1.5 1 2.1 2.4 2.6 4 .4-.7.7-1.2 1.2-1.7.4-.5.9-.9 1.5-1.3 0-.2-.4-.3-.2-.6s0-.5-.2-.6l-.3-.3c-.6-.5-1.2-1.1-1.6-1.8-1 1-1.8 1.8-3 2.3zm5.2-81.1c-1.2-.7-2-1.8-2.7-3-.4.8-.5 1.6-.9 2.2-.4.7-.9 1.2-1.6 1.7.3.3.7.5 1.1.7.5.4 1 .9 1.4 1.3.2.2.3.3.5 0 .5-.7 1.2-1.3 1.8-1.9.1-.1.2-.2.2-.4-.2-.2 0-.3.2-.6zm30.7 59.7c.5.9.7 1.8.8 2.7.1.3.1.5.4.5.1 0 .2.1.3.2.1.3.2.2.4.1.9-.5 1.9-.6 2.9-.6.2 0 .4.1.6-.1-1.1-1.1-2-2.4-2.1-4.1-1 .8-2.1 1.1-3.3 1.3zm10.3-26.8c-1.5-.2-3-.5-4.2-1.8-.3 1.3-1 2.2-1.7 3.2.9.3 1.6.9 2.3 1.4.3.2.5.5.9.2.1-.1.2 0 .3 0 .2.2.3.1.3-.1.4-1 1.1-1.9 2-2.6 0 0 .1-.1.1-.3zm-83.1 4.3c.7-1 1.5-1.7 2.4-2.2.2-.1.2-.3 0-.5-.6-.5-1-1.2-1.3-1.9-.3-.6-.9-.4-1.2-.8 0 0-.1.1-.2.1-.8.8-1.8 1.4-2.8 1.8-.1 0-.2 0-.2.2 1.3.8 2.6 1.6 3.3 3.3zm67.8-30h-.1c-.1 0-.1.1-.2.1-1.2.8-2.4 1.3-3.8 1.2-.1 0-.2.1-.2.2 0 .2.1.3.1.5.3.7.4 1.4.4 2.1v.4c0 .2.1.3.4.3.8-.3 1.6-.2 2.4-.3.3 0 .6 0 .7-.4 0-.1.1-.2.3-.2.2 0 .2-.2.2-.3-.3-1-.3-2.1-.1-3.2-.1-.2 0-.3-.1-.4zm0 67.9c.1-.3 0-.5 0-.7-.1-.9-.1-1.8.1-2.6.1-.3.3-.6-.3-.7l-.1-.1c-.1-.4-.4-.4-.8-.4-.7 0-1.5 0-2.2-.2-.5-.1-.5-.1-.5.4 0 .6 0 1.1-.2 1.7l-.3.9c-.1.3 0 .4.3.3 1-.1 1.9.2 2.7.6.4.3.8.5 1.3.8zM7.3 58.4c.2.2.4.2.6.3.8.3 1.6.8 2.3 1.4.3.2.4.6.8.2h.2c.3 0 .4-.1.5-.3.4-.7.8-1.4 1.4-2 .3-.3.3-.4-.1-.6-.8-.5-1.5-1-2-1.7-.1-.1-.1-.3-.4-.2-.6 1.3-1.9 2.1-3.3 2.9zM39.8 90c-.2-.5-.5-.7-.7-1-.4-.5-.6-1.1-.9-1.7-.1-.2-.2-.3-.4-.1-.6.5-1.4.7-2.1 1-.3.2-.7.2-.7.7 0 .2-.3.2-.4.4.8 1 1.2 2.3 1.4 3.7 1.1-1.5 2.1-2.6 3.8-3zm-.1-77.4c-.4-.1-.7-.2-1.1-.4-.9-.5-1.6-1.2-2.2-2-.1-.1-.2-.3-.4-.3-.1.6-.2 1.2-.5 1.8-.3.6-.5 1.2-1 1.7.2.1.4.2.4.5s.2.3.4.4c.7.3 1.5.6 2.2 1 .4.3.4.3.6-.2.3-.8.7-1.6 1.3-2.2.2 0 .3-.1.3-.3zM18.1 70.4c-1 .1-1.7-.3-2.6-.5-.4-.1-.7-.3-1 .1h-.1c-.4-.1-.4.1-.4.4-.1 1.1-.5 2.1-1 3-.1.1-.1.2 0 .3 1.5-.4 3-.6 4.5.2-.1-1.2.2-2.3.6-3.5zm44.6 20.2c1.3.3 2.4.9 3.5 1.9-.1-1.7 0-3.2 1-4.5-.4-.2-.9-.2-1.3-.3-.6-.2-1.1-.5-1.7-.7-.3-.2-.4-.2-.5.2-.2.8-.6 1.4-.9 2.2-.1.3-.3.5 0 .8.1 0-.1.2-.1.4zm0-78.6c.1.3.2.5 0 .7-.2.2 0 .3 0 .5.3.5.5 1.1.8 1.6.2.3.1.7.4 1 1-.6 2.1-1 3.3-1.2-.3-.4-.5-.7-.6-1.1-.2-.4-.2-.8-.3-1.2-.2-.5-.1-1.1-.1-1.6 0-.2.1-.4-.1-.5-1 .9-2.1 1.5-3.4 1.8zM12.9 28.8c-.1.3.1.4.2.5.4.7.7 1.5.9 2.3.1.2.1.5.1.8 0 .1 0 .3.2.2.2-.1.4 0 .5.2.1.1.2.1.4.1.9-.3 1.9-.7 3-.7-.4-1.1-.7-2.2-.6-3.5-1.7.7-3.1.5-4.7.1zm12.6.8c.3-.2.4-.4.6-.6.7-.8 1.4-1.6 2.2-2.3l.4-.4c.1-.1.1-.2 0-.3-1.3-.8-2.8-1.2-4.3-.8-.3.1-.3.3-.3.5.2 1 .5 1.9.9 2.9.1.3.3.7.5 1zm0 43.3c-.1.3-.3.5-.4.7-.4.7-.6 1.5-.8 2.3-.1.3-.2.7-.3 1 0 .2-.1.4.2.4.4.1.9.3 1.3.2 1.1-.1 2.1-.3 3-.9.3-.2.3-.2 0-.5s-.7-.6-1-1c-.6-.6-1.2-1.4-2-2.2zm46.1-47.5c.1 0 .1 0 0 0 .9-1.6.9-3.1.2-4.7-.1-.2-.3-.2-.5-.1-.9.4-1.8.8-2.7 1.4-.3.2-.7.4-1 .8 1.5.8 2.8 1.7 4 2.6zm8.2 42.1c1.6.5 3.2.3 4.6-.7.2-.1.2-.3.1-.5l-.6-.9c-.6-.8-1.1-1.5-1.9-2.1-.3-.2-.3-.2-.4.1-.4 1.1-.8 2.2-1.3 3.2-.2.3-.4.6-.5.9zM67.7 79.8c.1.1.1.1.1.2 1.1.9 2.4 1.5 3.7 2 .3.1.3-.1.4-.3.7-1.5.6-2.9 0-4.4-.1-.2-.2-.2-.4-.1-.4.3-.9.6-1.3.9-.8.7-1.7 1.1-2.5 1.7zm12-44.8c.1.3.2.5.3.7.5 1 1 2 1.3 3.1.3.8.3.8.9.2.8-.8 1.5-1.8 2.2-2.8.2-.3.1-.4-.1-.5-1.4-.9-2.9-1.1-4.6-.7zM45.4 18.5h.4c.9-.2 1.8-.3 2.7-.4.5 0 .9 0 1.4-.1.2 0 .4-.1.3-.4-.5-1.4-1.3-2.6-2.7-3.2-.4-.2-.4-.2-.7.2-.5.9-.8 1.7-1.1 2.7-.2.4-.3.8-.3 1.2zM82 40.4c.6 1.5 1 3 1.4 4.6 1.3-.4 2.9-2 3.1-3.5 0-.2-.1-.3-.3-.4-1.1-.3-2.2-.6-3.3-.7-.3-.1-.6-.1-.9 0zm0 21.7c.1 0 .1.1.1.1 1.4 0 2.8-.4 4.2-.8.2-.1.2-.2.2-.4-.4-1.7-1.5-2.8-3.1-3.5-.4 1.6-.8 3.2-1.4 4.6zm-36.6 22c-.1.1 0 .2 0 .2.3 1.3.8 2.5 1.4 3.7.1.2.3.2.5.1 1.4-.7 2.3-1.8 2.8-3.3.1-.2 0-.4-.3-.4h-.4c-1.2 0-2.4-.2-3.6-.4-.1.1-.2 0-.4.1zm-1-65.4v-.1c-.1-.1-.1-.3-.2-.4-.7-1.1-1.6-2-2.5-2.8-.2-.2-.3-.1-.5.1-1.2 1.2-1.6 2.7-1.4 4.4 1.5-.5 3.1-.9 4.6-1.2zm-26.9 33c-.3.1-.6.2-.8.3-1.1.5-2 1.2-2.9 1.9-.2.2-.2.3-.1.5.9 1.4 2.3 2 3.8 2.2.2 0 .3-.1.3-.3-.1-.5-.1-1-.2-1.5 0-1-.2-2-.1-3.1zm0-.9c0-.7 0-1.3.1-1.9.1-.9.1-1.8.2-2.7 0-.2-.1-.2-.2-.2-1.6.2-2.9.9-3.9 2.2-.2.2-.1.3.1.5l1.2.9c.8.5 1.5 1 2.5 1.2zM25 30.3c-1.4-.6-2.9-.7-4.3-.8-.3 0-.3.2-.3.4-.1 1.5.4 2.8 1.4 4 .2.3.3.3.5-.1.8-1.1 1.7-2.3 2.7-3.5zm0 41.9c-.3-.3-.5-.6-.8-.9-.7-.8-1.3-1.7-1.9-2.6-.2-.3-.3-.3-.6 0-1 1.1-1.5 2.4-1.4 3.9 0 .4 0 .5.5.4 1-.1 2-.1 2.9-.4.5 0 .9-.1 1.3-.4zm14.8 10.5c-.2 1.4.1 2.6.8 3.7.2.3.4.6.7.8.1.1.2.1.4 0 1-.9 1.9-1.8 2.6-3 .1-.1.2-.2.1-.4-1.5-.2-3.1-.6-4.6-1.1zm27-2.4c-1.4.8-2.8 1.5-4.3 2.2 1.1 1.4 2.3 2.3 4 2.4.3 0 .3-.1.4-.3.2-1.2.2-2.4.1-3.5 0-.4 0-.6-.2-.8zm0-58c.1-.2.1-.3.1-.4.1-1.3.1-2.7-.1-4 0-.2-.2-.2-.3-.2-1.7.1-3 1-4 2.5 1.5.6 2.9 1.3 4.3 2.1z"/>
  <path d="M49.4 81.9c-1.5 0-3 0-4.5-.4-2.2-.5-4.3-1.1-6.2-2.2-.5-.3-1.1-.5-1.6-.8-1.3-.7-2.7-1.4-3.9-2.3-.5-.4-1-.7-1.5-1-1.2-.8-2.2-1.7-3.2-2.7-2.3-2.2-3.9-4.8-5.1-7.8-.2-.5-.5-.9-.6-1.4-.5-1.3-1-2.5-1.4-3.9l-.9-3c-.4-2-.8-4-.6-6.1.1-2 .4-4 1-5.9.2-.7.4-1.4.6-2 .5-1.6 1.2-3.1 1.8-4.6.8-2 1.9-3.9 3.1-5.6.7-1 1.5-1.8 2.4-2.6 1.7-1.7 3.8-3 5.8-4.2 1-.7 2.1-1.3 3.3-1.8 1-.4 1.9-1 2.9-1.4 1.7-.6 3.4-1.2 5.2-1.4 1-.1 2-.1 3-.2 1.5-.1 3.1.2 4.6.3 1.4.1 2.7.3 4.1.7 1.9.5 3.8.9 5.7 1.6 2.1.8 3.9 2 5.7 3.4 1.9 1.5 3.4 3.3 5 5.1 1.2 1.4 2.2 2.8 3.2 4.3 1.2 1.7 2.2 3.6 2.7 5.6.6 2.1 1.1 4.3 1 6.5 0 .4 0 .9.1 1.3.2.9-.1 1.8.1 2.7.1.3 0 .6-.1.9-.2 1.5-.1 2.9-.4 4.4-.3 1.7-.6 3.3-1.3 4.9-.9 2-1.9 3.9-3.2 5.6-.5.6-.8 1.2-1.3 1.8-.8.9-1.4 1.8-2.3 2.6-.8.7-1.4 1.6-2.3 2.3-2.2 2-4.5 3.6-7.3 4.6-1.2.4-2.5.9-3.7 1.1-.8.1-1.5.4-2.2.5-1.3.2-2.7.5-4 .6-1.3.4-2.5.6-3.7.5zm-29-30.6c0 .9.1 1.8.2 2.7.2 2.4 1 4.6 1.7 6.8.4 1.3 1 2.5 1.5 3.7 1.3 3 2.9 5.8 5.4 8 1.1 1 2.2 1.9 3.4 2.7 1.5 1 2.9 1.9 4.5 2.7.5.3 1.1.5 1.6.8 2.3 1.2 4.8 2 7.3 2.4 1.1.2 2.3.2 3.4.2h1.3c.8-.1 1.5-.2 2.3-.3 1.6-.1 3.1-.4 4.6-.7.5-.1 1-.3 1.5-.4 2.3-.5 4.4-1.3 6.5-2.4 1.7-.9 3.2-2.1 4.5-3.4.8-.7 1.5-1.5 2.2-2.3.4-.4.7-.8 1-1.2.9-.9 1.6-2 2.4-3 1.5-1.9 2.6-4 3.4-6.2.5-1.3.8-2.7 1-4.1.3-1.9.4-3.9.4-5.9 0-.7.1-1.4 0-2.1-.1-.4-.1-.9-.1-1.4 0-1.3-.2-2.5-.4-3.8-.5-2.9-1.6-5.6-3.3-8.1-1-1.5-2.1-3-3.3-4.4-1.6-1.8-3.2-3.6-5-5.1-2.2-1.8-4.6-3-7.2-3.8-2.3-.7-4.6-1.2-7-1.5-.5-.1-1.1-.1-1.6-.2-1-.2-1.9-.2-2.9-.3-.8 0-1.6.1-2.4.1h-1c-1.8.2-3.5.8-5.3 1.4-1.4.5-2.7 1.3-4 1.9-1.4.7-2.7 1.6-4.1 2.4-1.6 1-3.1 2.3-4.5 3.6-1.6 1.5-2.8 3.4-3.8 5.3-1 2-1.9 4-2.6 6.1-.6 1.9-1.3 3.8-1.5 5.8 0 1.7-.2 2.8-.1 4z"/>
  <path d="M78.9 36.6c.1 0 .2.1.2.3 0 .2-.1.3-.3.2-.1 0-.2-.1-.2-.3.1-.1.1-.2.3-.2z"/>
  <path d="M44.1 82.6c-.2 0-.3-.1-.2-.3 0-.1.1-.3.3-.2.2 0 .2.1.2.3-.1.1-.2.2-.3.2z"/>
  <path d="M79.1 65.7c0 .2-.1.3-.3.3-.2 0-.2-.2-.2-.3 0-.1.1-.2.3-.2.2 0 .2.1.2.2z"/>
  <path d="M19.4 46.1c-.2 0-.3-.1-.3-.3 0-.2.1-.3.3-.3.1 0 .2.1.2.2 0 .3 0 .4-.2.4z"/>
  <path d="M44.4 20.2c0 .1-.1.3-.3.2-.1 0-.3-.1-.2-.3 0-.1.1-.3.3-.2.1.1.1.2.2.3z"/>
  <path d="M19.6 56.7c0 .2-.1.3-.2.3s-.2-.1-.3-.2c0-.2.1-.3.2-.3.2-.1.3 0 .3.2z"/>
  <path d="M46.5 19.8c-.1.2-.1.3-.3.3-.2 0-.2-.1-.2-.3 0-.2.1-.2.3-.2.1 0 .1.1.2.2z"/>
  <path d="M46.5 82.7c0 .2-.1.2-.2.2-.2 0-.3-.1-.3-.3 0-.2.1-.3.3-.3.1.2.1.3.2.4z"/>
  <path d="M49 82.7c.2 0 .2.1.3.3 0 .2-.1.3-.2.3-.2 0-.3-.1-.3-.2 0-.3.1-.4.2-.4z"/>
  <path d="M38.8 22c0 .2-.1.3-.2.3s-.3-.1-.3-.3c0-.1.1-.3.3-.2.1 0 .1.1.2.2z"/>
  <path d="M23.2 35c.2 0 .3.1.2.3 0 .2-.1.2-.3.2-.1 0-.2-.1-.2-.2l.3-.3z"/>
  <path d="M38.5 80.8c-.1 0-.2-.1-.2-.3 0-.1.1-.2.3-.2.1 0 .2.1.2.3-.1.1-.2.2-.3.2z"/>
  <path d="M73.1 28.6c.1 0 .2.1.2.2 0 .2-.1.3-.2.3-.2 0-.3-.1-.3-.2 0-.2.1-.2.3-.3z"/>
  <path d="M73.1 73.9c-.2 0-.3-.1-.3-.2s.1-.3.3-.3c.1 0 .2.1.2.3 0 .1-.1.2-.2.2z"/>
  <path d="M49 19.4c.2 0 .3.1.3.2s-.1.3-.2.3c-.2 0-.2-.1-.3-.3 0-.1.1-.2.2-.2z"/>
  <path d="M74.3 72.6c0 .2-.1.3-.3.3-.1 0-.2-.1-.2-.2 0-.2.1-.3.2-.3.2-.1.3.1.3.2z"/>
  <path d="M74.1 29.7c.1 0 .2.1.2.3 0 .1-.1.3-.3.2-.1 0-.2-.1-.2-.2 0-.2.1-.3.3-.3z"/>
  <path d="M19.2 55.4c-.2 0-.3-.1-.2-.2 0-.2.1-.2.3-.2.1 0 .2.1.2.2-.1.2-.1.2-.3.2z"/>
  <path d="M25.9 70.9c0 .1-.1.2-.2.2-.2 0-.3-.1-.3-.3 0-.1.1-.2.2-.2.2 0 .3.1.3.3z"/>
  <path d="M71.2 26.9c0 .1-.1.2-.3.2-.2 0-.2-.1-.2-.2 0-.2.1-.3.3-.3.2 0 .2.2.2.3z"/>
  <path d="M47.9 19.7c0 .1-.1.3-.3.3-.1 0-.3-.1-.2-.3 0-.1.1-.2.2-.2.2 0 .3.1.3.2z"/>
  <path d="M79.8 38.1c0 .2-.1.2-.3.2-.2 0-.2-.1-.2-.3 0-.1.1-.2.2-.2.2.1.3.2.3.3z"/>
  <path d="M43 82c0 .1-.1.3-.3.2-.1 0-.2-.1-.2-.3 0-.2.1-.3.3-.2.1 0 .2.1.2.3z"/>
  <path d="M69.8 26.2c-.1 0-.2-.1-.2-.3 0-.1.1-.2.3-.2.2 0 .2.1.2.3-.1.2-.2.2-.3.2z"/>
  <path d="M71 75.9c-.1-.1-.2-.1-.2-.3 0-.2.1-.2.3-.2.1 0 .2.1.2.2-.1.2-.2.3-.3.3z"/>
  <path d="M25.7 32c-.1 0-.3-.1-.2-.3 0-.2.1-.2.3-.2.1 0 .2.1.2.2-.1.2-.2.2-.3.3z"/>
  <path d="M23.5 67.2c0 .2-.1.3-.3.3-.2 0-.2-.1-.2-.3 0-.1.1-.2.2-.2.2 0 .3.1.3.2z"/>
  <path d="M70 76.5c0 .2-.1.3-.2.3s-.2-.1-.2-.2c0-.2.1-.3.2-.3s.2.1.2.2z"/>
  <path d="M81.9 45.9c-.2 0-.2-.1-.2-.3 0-.1.1-.2.2-.2.2 0 .2.1.2.3 0 .1-.1.2-.2.2z"/>
  <path d="M82.2 56.9c0 .2-.1.3-.3.3-.1 0-.2-.1-.2-.3 0-.1.1-.2.2-.2.2 0 .2 0 .3.2z"/>
  <path d="M43 20.5c0 .2-.1.3-.2.3-.2 0-.3-.1-.3-.2s.1-.3.2-.3c.2 0 .2.1.3.2z"/>
  <path d="M79.8 64.4c0 .1-.1.2-.3.2-.1 0-.2-.1-.2-.2 0-.2.1-.3.3-.3.1.1.2.2.2.3z"/>
  <path d="M47.7 82.6c.1 0 .2.1.2.3 0 .1-.1.2-.2.2-.2 0-.3-.1-.3-.2 0-.2.1-.3.3-.3z"/>
  <path d="M19.2 47.6c-.2 0-.3-.1-.2-.2 0-.2.1-.2.3-.2.1 0 .2.1.2.2-.1.1-.1.2-.3.2z"/>
  <path d="M81.2 42.5c.2 0 .3.1.3.3 0 .2-.1.2-.3.2-.1 0-.2-.1-.2-.3l.2-.2z"/>
  <path d="M80.8 61.4c-.2 0-.3-.1-.2-.3 0-.1.1-.2.3-.2.1 0 .2.1.2.2 0 .2-.1.3-.3.3z"/>
  <path d="M58.9 20.4c.1 0 .2.1.2.3 0 .2-.1.2-.3.2-.1 0-.2-.1-.2-.2 0-.2.1-.3.3-.3z"/>
  <path d="M67.7 24.4c0 .2-.1.3-.3.2-.2 0-.2-.1-.2-.3 0-.1.1-.2.2-.2.2 0 .3.1.3.3z"/>
  <path d="M81.2 60c-.2 0-.2-.1-.2-.3 0-.2.1-.2.3-.2.1 0 .2.1.2.3 0 .1-.1.2-.3.2z"/>
  <path d="M41.3 21.2c-.1 0-.2-.1-.2-.3 0-.1.1-.2.3-.2.1 0 .2.1.2.2 0 .2-.1.3-.3.3z"/>
  <path d="M28.1 29.3c-.2 0-.3-.1-.3-.2s.1-.2.2-.2.3 0 .3.2c0 .1 0 .2-.2.2z"/>
  <path d="M67.2 78.2c0-.2.1-.2.3-.2.1 0 .2.1.2.2 0 .2-.1.2-.3.2-.1 0-.2-.1-.2-.2z"/>
  <path d="M27.3 30c0 .2-.1.3-.2.3-.2 0-.3-.1-.3-.3 0-.1.1-.3.3-.3.1.1.2.2.2.3z"/>
  <path d="M50.6 19.3c.1 0 .3.1.2.3 0 .2-.1.2-.3.2-.1 0-.2-.1-.2-.2 0-.2.1-.3.3-.3z"/>
  <path d="M32.7 77.2c0 .2-.1.3-.2.3s-.2-.1-.2-.2c0-.2.1-.3.2-.3s.2.1.2.2z"/>
  <path d="M57.5 20.6c-.2 0-.3-.1-.3-.3 0-.1.1-.3.3-.3.1 0 .2.1.2.3 0 .2-.1.3-.2.3z"/>
  <path d="M63.3 80.5c0 .2-.1.2-.3.2-.1 0-.2-.1-.2-.2 0-.2.1-.2.3-.2.1 0 .2.1.2.2z"/>
  <path d="M40.2 21.4c0 .1-.1.3-.3.3-.1 0-.2-.1-.2-.2 0-.2.1-.3.2-.3.2-.1.2.1.3.2z"/>
  <path d="M29.1 28.3c-.2 0-.2-.1-.2-.3 0-.1.1-.2.2-.2.2 0 .3.1.3.3-.1.1-.2.2-.3.2z"/>
  <path d="M52.1 19.9c-.1 0-.3-.1-.3-.3 0-.1.1-.2.2-.2s.2.1.3.2c0 .1-.1.2-.2.3z"/>
  <path d="M63 21.8c.2 0 .3.1.3.3 0 .1-.1.2-.2.2-.2 0-.3-.1-.2-.3-.1-.1 0-.2.1-.2z"/>
  <path d="M50.8 83c0 .2-.1.3-.3.2-.1 0-.2-.1-.2-.3 0-.1.1-.2.2-.2.2.1.3.2.3.3z"/>
  <path d="M30.2 26.8c.1 0 .2 0 .3.2 0 .2-.1.3-.2.3-.2 0-.3-.1-.3-.3-.1-.1 0-.2.2-.2z"/>
  <path d="M39.9 80.9c.2 0 .3.1.3.3 0 .1-.1.3-.3.3-.2 0-.2-.1-.2-.3 0-.2.1-.3.2-.3z"/>
  <path d="M41.3 81.3c.2 0 .3.1.3.3 0 .1-.1.2-.2.2s-.2 0-.3-.2c0-.1.1-.2.2-.3z"/>
  <path d="M31.6 26.1c0 .1-.1.2-.2.2-.2 0-.3 0-.3-.2 0-.1.1-.2.2-.2.2 0 .3.1.3.2z"/>
  <path d="M59.1 81.9c0 .1-.1.2-.3.2-.1 0-.2-.1-.2-.2 0-.2.1-.3.2-.3.2 0 .3.1.3.3z"/>
  <path d="M55.1 82.6c0 .2-.1.3-.2.3s-.2-.1-.2-.2c0-.2.1-.3.2-.3s.2.1.2.2z"/>
  <path d="M32.7 25.3c0 .2-.1.3-.2.3s-.2-.1-.2-.3c0-.1.1-.2.2-.2s.2.1.2.2z"/>
  <path d="M57.5 82c.1 0 .2.1.2.3 0 .1-.1.2-.2.2-.2 0-.3-.1-.3-.3 0-.1.1-.2.3-.2z"/>
  <path d="M78.2 66.8c.1 0 .2 0 .3.2 0 .2-.1.3-.2.3-.2 0-.3-.1-.3-.2 0-.2.1-.3.2-.3z"/>
  <path d="M21.6 39.2c0 .2-.1.3-.2.3s-.2-.1-.2-.2c0-.2.1-.3.2-.3.1-.1.2.1.2.2z"/>
  <path d="M77.6 68.3c0 .2-.1.3-.2.3-.2 0-.2-.1-.2-.3 0-.1.1-.2.2-.2s.2.1.2.2z"/>
  <path d="M20.7 60.9c0 .2-.1.2-.3.2-.1 0-.2-.1-.2-.2 0-.2.1-.2.3-.2.2 0 .2 0 .2.2z"/>
  <path d="M20.3 59.6s-.1.1-.2.1c-.2 0-.3 0-.3-.2 0-.1 0-.2.2-.2.2-.1.3 0 .3.3z"/>
  <path d="M81.8 58.3c0 .2 0 .3-.2.3s-.3-.1-.3-.3c0-.1.1-.2.2-.2.2 0 .3.1.3.2z"/>
  <path d="M76.9 69.4c0 .1-.1.2-.2.2-.2 0-.3 0-.3-.2 0-.1.1-.2.2-.2s.2.1.3.2z"/>
  <path d="M80.4 39.4c0 .2-.1.2-.2.2-.2 0-.3-.1-.3-.2s.1-.2.2-.2c.2 0 .2.1.3.2z"/>
  <path d="M24.8 69.9c-.2 0-.3-.1-.2-.3 0-.1.1-.2.3-.2.2 0 .2.1.2.3 0 .2-.1.2-.3.2z"/>
  <path d="M78.2 35.7c-.1 0-.2-.1-.2-.2 0-.2.1-.3.2-.3.2 0 .3.1.2.3 0 .2-.1.2-.2.2z"/>
  <path d="M80.8 41.2c.2 0 .2.1.2.3 0 .1-.1.2-.2.2s-.2-.1-.2-.2c0-.2.1-.3.2-.3z"/>
  <path d="M27 72.2c.2 0 .2.1.2.3 0 .1-.1.2-.2.2-.2 0-.3-.1-.3-.2l.3-.3z"/>
  <path d="M77.4 34.5c-.2 0-.3-.1-.2-.3 0-.1.1-.3.3-.2.1 0 .2.1.2.3-.1.1-.2.2-.3.2z"/>
  <path d="M28 73.7c-.1 0-.2-.1-.2-.2 0-.2.1-.2.3-.2.2 0 .3.1.3.2-.1.2-.2.2-.4.2z"/>
  <path d="M19 49c-.2 0-.2-.1-.2-.2 0-.2.1-.2.3-.2.1 0 .2.1.2.2 0 .2-.1.2-.3.2z"/>
  <path d="M76.6 32.9c.2 0 .3.1.3.2 0 .2-.1.3-.2.3-.2 0-.3-.1-.2-.2-.1-.3 0-.3.1-.3z"/>
  <path d="M29.3 74.5c0 .1-.1.3-.3.2-.1 0-.2-.1-.2-.3 0-.1.1-.3.3-.3.2.2.2.3.2.4z"/>
  <path d="M80.1 62.9c.1 0 .2 0 .3.2 0 .2-.1.3-.2.3s-.2-.1-.2-.2c-.1-.2-.1-.3.1-.3z"/>
  <path d="M20.7 41.6c0 .2-.1.2-.2.3-.2 0-.3 0-.3-.2 0-.1.1-.2.2-.2.2-.1.3 0 .3.1z"/>
  <path d="M21.4 63.1c.1 0 .2.1.2.3 0 .1-.1.3-.3.2-.1 0-.2-.2-.2-.3.1-.1.2-.2.3-.2z"/>
  <path d="M20 43.3c-.1 0-.2-.1-.2-.3 0-.1.1-.2.2-.2s.2.1.2.2c.1.2 0 .3-.2.3z"/>
  <path d="M81.8 44.2c0 .2-.1.3-.2.3-.2 0-.3-.1-.3-.3 0-.1.1-.3.3-.3.2.1.2.2.2.3z"/>
  <path d="M24.9 33.1c-.1 0-.3 0-.3-.2s.1-.3.2-.3c.2 0 .3.1.3.2 0 .2-.1.3-.2.3z"/>
  <path d="M30.4 75.5c0 .1-.1.2-.2.2-.2 0-.3 0-.3-.2 0-.1.1-.2.2-.2.2 0 .3.1.3.2z"/>
  <path d="M19.1 53.5c.1 0 .2.1.2.3 0 .1-.1.2-.2.2-.2 0-.3-.1-.2-.3-.1-.1 0-.2.2-.2z"/>
  <path d="M31.6 76.5c0 .2-.1.2-.3.2-.1 0-.2-.1-.2-.2 0-.2.1-.2.3-.2.2-.1.2 0 .2.2z"/>
  <path d="M61.9 21.5c0 .1-.1.2-.2.2s-.2-.1-.2-.2c0-.2.1-.3.3-.2 0 0 .1.1.1.2z"/>
  <path d="M19.7 44.2c.1 0 .2.1.2.2 0 .2-.1.2-.2.2s-.2-.1-.2-.2.1-.2.2-.2z"/>
  <path d="M37.5 22.6c0 .2-.1.2-.2.3-.1 0-.2-.1-.2-.2 0-.2.1-.3.2-.3.1-.1.2 0 .2.2z"/>
  <path d="M64.3 22.4c.2 0 .3.1.3.2 0 .2-.1.2-.3.2-.1 0-.2-.1-.2-.2-.1-.1 0-.1.2-.2z"/>
  <path d="M60.4 21.1c0 .1-.1.2-.2.2-.2 0-.2-.1-.2-.3 0-.1.1-.2.2-.2.2 0 .2.1.2.3z"/>
  <path d="M19.9 58.2c0 .1-.1.2-.2.2-.2 0-.2-.1-.2-.3 0-.1.1-.2.2-.2.2 0 .2.1.2.3z"/>
  <path d="M82.3 47.1c0 .1-.1.2-.2.2s-.2-.1-.3-.2c0-.2.1-.3.2-.3.2.1.3.2.3.3z"/>
  <path d="M82.2 48.8c-.1 0-.2-.1-.3-.2 0-.2.1-.3.2-.3s.2.1.2.2c.2.2.1.3-.1.3z"/>
  <path d="M55.1 19.9c0 .2-.1.3-.3.3-.1 0-.2-.1-.2-.2 0-.2.1-.2.3-.2.1-.1.2 0 .2.1z"/>
  <path d="M82.3 49.8c.1 0 .2.1.2.2 0 .2-.1.2-.3.2-.1 0-.2-.1-.2-.3.1-.1.2-.1.3-.1z"/>
  <path d="M53.7 19.8c0 .1-.1.2-.2.2s-.2-.1-.2-.2c0-.2.1-.3.3-.2 0-.1.1 0 .1.2z"/>
  <path d="M82.3 55.4c0 .1-.1.2-.2.2-.2 0-.2-.1-.2-.3 0-.1.1-.2.3-.2.1.1.1.2.1.3z"/>
  <path d="M19.2 50.2c0 .2-.1.2-.3.2-.1 0-.2-.1-.2-.2s.1-.2.2-.2c.2 0 .3 0 .3.2z"/>
  <path d="M18.9 52.1c.2 0 .3.1.2.3 0 .1-.1.2-.2.2-.2 0-.3-.1-.2-.3 0-.1.1-.2.2-.2z"/>
  <path d="M82.2 54.2c-.1 0-.2-.1-.2-.2 0-.2.1-.2.3-.2.1 0 .2.1.2.2-.1.2-.1.3-.3.2z"/>
  <path d="M82.5 52.6c0 .1-.1.2-.2.2s-.2 0-.2-.2.1-.3.2-.3c.2.1.2.2.2.3z"/>
  <path d="M75.8 32.2c-.2 0-.3 0-.3-.2 0-.1 0-.3.2-.3s.2.1.3.2c0 .2-.1.2-.2.3z"/>
  <path d="M68.9 77.4c0 .1-.1.2-.2.2-.2 0-.3-.1-.3-.2s.1-.2.2-.2c.2 0 .3 0 .3.2z"/>
  <path d="M33.9 78c0 .1-.1.2-.2.2s-.2-.1-.2-.2c0-.2.1-.2.3-.2.1 0 .1.1.1.2z"/>
  <path d="M72.3 74.7c0 .2-.1.2-.3.2-.1 0-.2-.1-.2-.2 0-.2.1-.2.3-.2.2 0 .2.1.2.2z"/>
  <path d="M65.6 79.1c.2 0 .3.1.3.2 0 .2-.1.3-.2.3-.2 0-.3-.1-.3-.3 0-.2.1-.2.2-.2z"/>
  <path d="M64.3 79.7c.2 0 .3 0 .3.2s-.1.2-.3.2c-.1 0-.2-.1-.2-.2-.1-.1 0-.2.2-.2z"/>
  <path d="M24.1 33.8c.1 0 .3.1.3.3 0 .1-.1.2-.2.2-.2 0-.3-.1-.3-.2-.1-.2 0-.3.2-.3z"/>
  <path d="M72.3 27.9c0 .1-.1.2-.2.2s-.3 0-.3-.2c0-.1.1-.2.2-.2.2-.1.3 0 .3.2z"/>
  <path d="M75.6 70.4c.3 0 .4.1.3.2 0 .2-.1.2-.3.2-.2 0-.2-.1-.2-.3.1-.1.2-.1.2-.1z"/>
  <path d="M61.9 81.1c0 .1-.1.2-.2.3-.2 0-.3 0-.3-.2 0-.1.1-.2.2-.2.2-.1.2-.1.3.1z"/>
  <path d="M60.4 81.5c0 .2-.1.3-.2.3s-.2-.1-.2-.2c0-.2.1-.3.2-.3s.2.1.2.2z"/>
  <path d="M22.5 36.9c-.2 0-.2-.1-.2-.2s.1-.2.2-.2c.2 0 .3.1.2.3 0 0-.1.1-.2.1z"/>
  <path d="M21.9 37.7c.2 0 .2.1.3.2 0 .2 0 .3-.2.3-.1 0-.2-.1-.2-.2-.1-.2 0-.3.1-.3z"/>
  <path d="M24.1 68.7c-.2 0-.3 0-.3-.2s0-.3.2-.3c.1 0 .2 0 .3.2 0 .2-.1.3-.2.3z"/>
  <path d="M22.5 66.1c-.2 0-.2-.1-.2-.2s.1-.2.2-.2c.2 0 .3.1.2.3 0 .1-.1.1-.2.1z"/>
  <path d="M68.9 25.2c0 .1-.1.2-.2.2s-.2-.1-.2-.2c0-.2.1-.3.3-.2 0-.1.1.1.1.2z"/>
  <path d="M21.9 64.9c-.2 0-.2-.1-.2-.3 0-.1.1-.2.2-.2.2 0 .2.1.2.3.1.1 0 .2-.2.2z"/>
  <path d="M33.9 24.5c0 .1-.1.2-.2.2-.2 0-.2-.1-.2-.3 0-.1.1-.2.2-.2.2.1.2.2.2.3z"/>
  <path d="M52.3 83c0 .1-.1.2-.2.2-.2 0-.3-.1-.2-.3 0-.1.1-.2.3-.2 0 .1.1.2.1.3z"/>
  <path d="M65.9 23.3c0 .2-.1.2-.2.2-.2 0-.3-.1-.3-.2s.1-.2.2-.2c.2-.1.2 0 .3.2z"/>
  <path d="M37.5 80.1c0 .1-.1.2-.2.2-.2 0-.2-.1-.2-.3 0-.1.1-.2.2-.2s.2 0 .2.3z"/>
  <path d="M53.4 83.1c-.1 0-.2-.1-.2-.2 0-.2.1-.3.2-.2.1 0 .2.1.2.2s0 .2-.2.2z"/>
  <path d="M36.2 79.3c0 .2-.1.2-.2.2s-.2-.1-.2-.2c0-.2.1-.2.3-.2.1 0 .1.1.1.2z"/>
  <path d="M36.2 23.2c0 .2-.1.3-.2.3-.2 0-.2-.1-.2-.3 0-.1.1-.2.3-.2.1 0 .1.1.1.2z"/>
  <path d="M16 39c-1.1-.2-2.3-.1-3.3.3-.2.1-.5.2-.7.3-.4.3-.7.2-.9-.2-.6-1.2-1.4-2.2-2.3-3.1-.1-.1-.3-.2-.2-.4.1-.2.2-.2.4-.3 1.3-.1 2.5-.4 3.7-.8.6-.2.7-.1 1 .5.5 1.2 1.3 2.1 2.3 2.8.1.1.3.2.4.3.1.1.2.2.2.3-.2.3-.3.3-.5.3H16zm-.9-.7c-1-.8-1.6-1.7-2-2.8-.1-.2-.2-.2-.4-.1-.7.3-1.3.5-2 .6-.3.1-.6.1-.9.2-.2 0-.3.1-.2.3.7.8 1.4 1.6 1.8 2.5.1.2.3.2.4.1 1-.5 2.1-.7 3.3-.8z"/>
  <path d="M11.5 62.7c.2 0 .3 0 .4.1 1.2.7 2.5 1 3.9.7h.3c.1 0 .3 0 .3.2.1.2 0 .3-.1.4-.1.1-.2.1-.3.2-1 .6-1.7 1.5-2.3 2.5-.1.1-.1.3-.2.4-.2.7-.4.8-1 .5-1-.4-2-.6-3-.8-.2 0-.5 0-.7-.1-.4-.1-.5-.3-.2-.6.4-.4.7-.7 1-1.1.5-.6 1-1.3 1.4-2.1.2-.2.3-.3.5-.3zm3.5 1.6c0-.2-.2-.1-.3-.1-1-.1-1.9-.3-2.8-.7-.4-.2-.4-.2-.6.2-.3.6-.7 1.1-1.1 1.6-.2.3-.4.5-.6.8-.2.2-.2.3.1.4 1 .2 2.1.3 3 .8.2.1.3 0 .4-.2.4-1.1 1.1-2 1.9-2.8z"/>
  <path d="M83.1 27.2c-1.4-.3-2.7 0-4 .7-.1 0-.2.1-.3.1-.2 0-.4-.1-.3-.4.1-.2.2-.3.3-.4.8-1.1 1.2-2.3 1.2-3.6 0-.5.1-.7.7-.7 1.3 0 2.6-.2 3.9-.5.1 0 .3 0 .4.1.1.1.1.3 0 .4-.6 1.2-1 2.4-1.2 3.7 0 .2-.1.5-.4.6 0 0-.1.1-.3 0zm-3.4-.3c.3 0 .6-.1.8-.2.8-.2 1.6-.2 2.4-.1.4 0 .4 0 .6-.4.1-.4.1-.9.3-1.3.2-.5.4-1.1.6-1.7-.1 0-.1-.1-.1-.1-1.1.2-2.1.3-3.2.3-.2 0-.3.1-.3.3 0 .5-.1.9-.2 1.4-.4.6-.6 1.2-.9 1.8z"/>
  <path d="M81.3 79.7h-.5c-.5 0-.7-.1-.7-.6s-.1-.9-.2-1.4c-.2-.9-.6-1.7-1.2-2.4-.1-.2-.4-.3-.2-.6.2-.2.4 0 .6.1 1 .5 2.1.8 3.2.8.3 0 .5 0 .8-.1.5-.1.7 0 .8.5.2 1.1.5 2.2.9 3.2l.3.6c.1.1.1.3 0 .4-.1.1-.2.1-.4.1-.8-.3-1.7-.4-2.5-.5-.4-.1-.7-.1-.9-.1zm3-.3c-.2-.5-.3-1-.5-1.5s-.3-1-.4-1.5c-.1-.4-.1-.4-.6-.4-1 0-2 0-2.9-.3-.1 0-.1 0-.2.1.3.5.5 1 .6 1.5.2.6.3 1.1.3 1.7 0 .3.2.3.4.3.7 0 1.5 0 2.2.1.3 0 .7.1 1.1 0z"/>
  <path d="M95.5 51.3c0 .2-.1.3-.3.3-.6.2-1 .5-1.6.8-.6.4-1.2.8-1.7 1.3-.4.3-.6.3-.9 0-.9-1.1-2.1-1.7-3.4-2.1-.2-.1-.5 0-.5-.4 0-.3.3-.3.5-.4 1.4-.3 2.5-1 3.4-2.1.3-.3.6-.4.9-.1 1 .9 2.1 1.6 3.3 2.1.2.4.3.4.3.6zm-1 0s0-.1 0 0c-.9-.7-1.9-1.2-2.7-1.9-.2-.2-.3-.1-.4.1-.7.7-1.5 1.2-2.4 1.7-.1.1-.3 0-.3.3.2.1.5.2.7.3.7.4 1.3.8 1.9 1.4.3.3.3.3.6 0 .7-.7 1.6-1.1 2.4-1.6.1-.2.2-.2.2-.3z"/>
  <path d="M55.1 10.7c0-.3.1-.3.3-.4.9-.7 1.6-1.5 2.3-2.3.1-.2.3-.4.4-.6.1-.1.2-.2.4-.2s.2.2.3.3c.1.6.3 1.1.5 1.6.3.7.6 1.4 1 2 .2.3.1.7-.2.8-1.2.7-2.1 1.7-2.6 3-.1.1-.1.3-.2.4-.1.1-.2.2-.3.1-.1 0-.2-.1-.2-.3 0-.4-.1-.8-.1-1.2-.2-1.1-.6-2.1-1.3-2.9-.2 0-.3-.2-.3-.3zm3.2-2.6c-.8 1-1.6 1.9-2.6 2.6.8 1 1.2 2.1 1.6 3.3.6-1 1.3-1.8 2.2-2.4.3-.2.3-.2.1-.6-.4-.7-.7-1.4-1-2.1-.1-.2-.1-.5-.3-.8z"/>
  <path d="M55.1 91.8c0-.2.1-.3.2-.4 1-1.1 1.3-2.4 1.4-3.8 0-.2-.1-.5.2-.5.3 0 .3.2.4.4.4 1.1 1.1 2 2 2.7.2.2.4.3.6.4.4.2.5.5.2.9-.7 1.1-1.2 2.3-1.5 3.6 0 .2-.1.3-.3.3-.2 0-.3-.1-.4-.2-.5-.8-1.1-1.4-1.7-2-.3-.3-.7-.6-1-.9 0-.1-.1-.2-.1-.5zm2.1-3.2c-.3 1.2-.7 2.4-1.6 3.3 1 .7 1.8 1.7 2.5 2.6.1 0 .1-.1.1-.1.4-1 .7-2.1 1.4-3 .1-.2 0-.3-.1-.4-.6-.3-1-.8-1.5-1.3-.2-.3-.4-.7-.8-1.1z"/>
  <path d="M32.6 14.9s0 .1-.1.2c-.5 1.3-.5 2.6-.1 3.9 0 .2.1.3.1.5 0 .1 0 .2-.1.3-.1.1-.2.1-.3 0l-.3-.3c-1-1-2.1-1.7-3.5-1.9-.4-.1-.6-.3-.5-.7.3-1.1.3-2.3.2-3.5v-.5c-.1-.2 0-.3.2-.4.2-.1.3 0 .4.1.4.3.9.6 1.4.9.7.4 1.4.7 2.2 1 .3-.1.4.1.4.4zm-.9 3.6v-.7c-.1-.9 0-1.7.2-2.5.1-.4.1-.5-.3-.6-.7-.2-1.3-.6-2-.9-.3-.1-.5-.4-.9-.5-.1.4 0 .7 0 1 0 .7 0 1.5-.2 2.2-.1.2 0 .4.3.5 1 .3 2 .8 2.9 1.5z"/>
  <path d="M28.1 89.7c.1-.8.1-1.7 0-2.5 0-.5-.2-1-.2-1.5-.1-.4.1-.6.5-.7 1.4-.2 2.5-.9 3.4-1.9l.4-.4c.2-.1.4 0 .4.3 0 .2-.1.3-.1.5-.4 1.3-.4 2.6.1 3.8.2.5.1.7-.4.9-1.2.4-2.4 1-3.5 1.8-.1.1-.2.2-.4.1s-.2-.2-.2-.4zm3.6-5.6c-.9.7-1.8 1.2-2.8 1.4-.5.1-.5.2-.4.7.1.6.2 1.1.2 1.7v1.3h.2c1-.5 1.9-1.1 2.9-1.4.3-.1.2-.3.2-.5-.2-.8-.4-1.7-.3-2.6 0-.1.1-.3 0-.6z"/>
  <path d="M12.5 52.8c-.1 0-.2-.1-.3-.1-.5-.4-1.1-.9-1.7-1.1-.1 0-.2-.2-.2-.3 0-.1.1-.2.2-.3.7-.2 1.2-.7 1.8-1.1.2-.2.4-.1.6.1.4.5 1 .8 1.6 1 .2.1.3.1.3.4 0 .2-.1.3-.3.3-.6.2-1.2.5-1.7 1.1h-.3zm1.2-1.5c-.4-.2-.8-.5-1.1-.7-.1-.1-.2-.1-.3 0-.3.2-.7.5-1.1.8.4.3.7.5 1.1.8.1.1.3.1.4 0 .3-.4.6-.6 1-.9z"/>
  <path d="M86.2 65.8c-.2 0-.3-.1-.4-.2-.2-.6-.7-1.1-1.2-1.6-.1-.1-.3-.2-.2-.4.1-.2.3-.2.4-.2.6 0 1.3-.1 1.9-.4.2-.1.4-.1.6.1.4.6.7 1.2 1.3 1.7.2.1.1.5-.1.5-.8 0-1.5.3-2.3.5zm1.5-1c0-.2-.1-.3-.2-.4-.2-.3-.4-.7-.6-.8-.3-.2-.6.1-.9.2-.1 0-.3 0-.5.1.2.3.5.6.7.9.1.2.3.3.5.2.3 0 .6-.1 1-.2z"/>
  <path d="M88.7 37.5c0 .1 0 .2-.1.3-.5.4-.9 1-1.2 1.6-.2.3-.3.4-.6.2-.6-.3-1.2-.4-1.9-.4-.2 0-.4 0-.4-.2-.1-.2.1-.3.2-.4.5-.4.9-.9 1.1-1.5.1-.3.3-.3.6-.2.4.1.8.3 1.3.3.2.1.5.1.8.1l.2.2zm-1 .3c-.4-.1-.8-.2-1.1-.3-.1 0-.3-.1-.4.1-.3.4-.5.7-.8 1.2.5 0 .8.1 1.2.3.2.1.3.1.4-.1.2-.5.5-.8.7-1.2z"/>
  <path d="M23.2 74.5c0 .1-.1.2-.1.3-.3.6-.6 1.2-.6 1.8 0 .3-.2.4-.4.4-.7 0-1.4 0-2 .3-.2.1-.3 0-.4-.1-.1-.1-.1-.2 0-.3.4-.6.5-1.2.6-1.9.1-.4.1-.4.5-.4.6 0 1.3 0 1.9-.3.3-.1.5 0 .5.2zm-.8.5c-.5.2-.8.2-1.2.2-.2 0-.3 0-.4.2-.1.4-.3.8-.3 1.3.4 0 .8 0 1.1-.1.2 0 .3-.1.4-.3.1-.4.2-.8.4-1.3z"/>
  <path d="M21.2 28c-1 0-.8.1-1-.8-.1-.5-.2-1-.5-1.5-.1-.1-.1-.3 0-.4.1-.1.2-.2.4-.1.6.2 1.3.3 1.9.3.5 0 .5 0 .5.5.1.6.3 1.1.5 1.6 0 .1.1.2.2.3.1.1.1.2 0 .3-.1.1-.2.1-.4.1-.5-.2-1-.4-1.6-.3zm-.7-2.1c0 .5.2.8.3 1.2 0 .2.2.3.3.3.4 0 .8.1 1.2.1-.1-.4-.2-.8-.3-1.1 0-.3-.2-.4-.4-.4-.4 0-.7 0-1.1-.1z"/>
  <path d="M68.6 19.2c0-.5 0-1-.1-1.4-.1-.3 0-.4.3-.5.6-.3 1.3-.5 1.8-.9.2-.2.5 0 .5.2-.1.7 0 1.3.1 2 .1.5 0 .5-.4.6-.6.2-1.1.5-1.6.8-.1.1-.2.3-.4.2-.2-.1-.2-.3-.1-.5-.1-.2-.1-.3-.1-.5zm.5 0c.4-.2.8-.4 1.2-.5.1 0 .2-.1.2-.2-.1-.4 0-.9-.2-1.3-.4.2-.7.3-1.1.5-.1.1-.2.1-.2.3.1.3.1.8.1 1.2z"/>
  <path d="M71.1 83.9c0 .3-.1.7-.1 1.1 0 .3-.1.6 0 .9 0 .1 0 .3-.1.4-.1.1-.2.1-.3 0-.5-.5-1.2-.7-1.9-1-.2-.1-.3-.2-.3-.4.2-.7.2-1.4.1-2.1 0-.2 0-.3.1-.4.2-.1.3 0 .4.1.5.4 1.1.8 1.8.9.2 0 .3.2.3.5zm-2-.6c0 .5-.1.9-.1 1.4 0 .1 0 .2.1.2.4.1.7.4 1.2.5.1-.4.1-.8.1-1.2 0-.1-.1-.2-.2-.3-.2-.2-.6-.4-1.1-.6z"/>
  <path d="M43.7 91.1c-.2 0-.3-.1-.3-.3-.1-.7-.4-1.3-.8-1.8-.1-.2-.2-.4.1-.6.6-.4 1-.9 1.4-1.5.1-.1.1-.3.3-.3.2 0 .3.2.3.4.1.7.3 1.3.7 1.8.2.2.2.4-.1.6-.5.4-1 .9-1.4 1.5 0 .1-.1.2-.2.2zm.5-3.4c-.3.3-.6.7-.9.9-.1.1-.1.2-.1.3.2.4.3.8.7 1.3.3-.3.5-.6.8-.9.1-.1.2-.2.1-.4l-.6-1.2z"/>
  <path d="M44.4 16c-.2 0-.2-.1-.3-.2-.4-.6-.8-1.2-1.4-1.5-.2-.1-.2-.3-.1-.6.3-.6.7-1.2.8-1.9 0-.1.1-.2.2-.2s.3 0 .3.2c.4.6.9 1.1 1.4 1.5.2.2.2.3.1.6-.4.6-.7 1.2-.8 1.9.1 0 0 .1-.2.2zm-.6-3.6l-.6 1.2v.3c.3.3.6.6 1 .9.2-.4.4-.7.5-1.1.1-.1.1-.2 0-.4l-.9-.9z"/>
  <path d="M24.2 19.9c.3 0 .6.2.6.4s-.1.3-.3.3c-.3 0-.5-.1-.5-.4 0-.2 0-.3.2-.3z"/>
  <path d="M90.6 58.2c.2 0 .5.2.5.4s-.2.3-.3.3c-.2 0-.4-.3-.4-.4-.1-.1 0-.3.2-.3z"/>
  <path d="M86.1 30.9c.2 0 .3 0 .3.2s-.1.4-.4.4c-.2 0-.4-.1-.4-.3.1-.3.3-.3.5-.3z"/>
  <path d="M24.4 82c.2 0 .4.1.4.3 0 .3-.3.3-.5.4-.2 0-.3-.1-.3-.3 0-.3.1-.4.4-.4z"/>
  <path d="M50.8 91.9c0 .3-.2.5-.4.5s-.3-.2-.3-.4.3-.4.4-.4c.2 0 .3.1.3.3z"/>
  <path d="M50.1 10.6c0-.2.1-.4.3-.4.3 0 .3.3.4.4 0 .2 0 .3-.2.3-.2.1-.5-.2-.5-.3z"/>
  <path d="M86.1 71.7c-.2 0-.5 0-.4-.3 0-.3.2-.3.4-.3s.4.2.4.4c-.1.2-.3.2-.4.2z"/>
  <path d="M91.1 43.9c0 .2-.3.4-.5.5-.2 0-.3-.1-.3-.2 0-.2.2-.5.4-.5.1-.1.4.1.4.2z"/>
  <path d="M10.6 44.2c.2 0 .3 0 .3.2s-.3.4-.4.4c-.2 0-.3-.1-.4-.3 0-.2.2-.3.5-.3z"/>
  <path d="M76.3 19.9c0-.2.1-.3.3-.4.2 0 .3.1.3.3 0 .2-.1.5-.3.5-.2.1-.2-.2-.3-.4z"/>
  <path d="M77 82.7c0 .2-.1.3-.2.3-.2 0-.4-.1-.4-.3 0-.2 0-.4.3-.5.1 0 .3.3.3.5z"/>
  <path d="M10.6 58.4c-.2 0-.4 0-.5-.3 0-.2.2-.4.4-.3.2 0 .4.3.4.4 0 .2-.1.2-.3.2z"/>
  <path d="M36.7 89.6c0-.2 0-.4.3-.4.2 0 .3.2.3.4s-.2.4-.4.4c-.1 0-.2-.1-.2-.4z"/>
  <path d="M37 12.6c.2 0 .4.2.3.4-.1.2-.1.4-.4.4-.3 0-.2-.2-.3-.4.1-.3.1-.4.4-.4z"/>
  <path d="M15.9 71.7c0 .3-.1.5-.4.5-.1 0-.3 0-.3-.2s.2-.5.4-.5.3 0 .3.2z"/>
  <path d="M64.9 89.8c-.2 0-.5-.4-.5-.5 0-.2.1-.3.3-.2.2 0 .4.1.4.4.1.1 0 .3-.2.3z"/>
  <path d="M64.7 13.5c-.2 0-.3-.1-.3-.2 0-.2.3-.6.5-.5.2 0 .3.2.3.3 0 .2-.2.4-.5.4z"/>
  <path d="M15.6 31.1c-.2 0-.4-.3-.4-.5s.2-.2.3-.2c.2 0 .4.2.4.5 0 .1-.2.2-.3.2z"/>
  <path d="M12.1 37.7c-.2 0-.4-.2-.4-.4 0-.3.1-.4.4-.4.3 0 .5.1.4.4-.1.2-.2.4-.4.4z"/>
  <path d="M12.5 65.4c0 .2-.1.4-.4.4-.3 0-.4-.1-.4-.4 0-.3.1-.4.4-.4.2-.1.4.1.4.4z"/>
  <path d="M82.2 24.4c.2 0 .4.2.4.4s-.2.5-.5.4c-.2 0-.4-.3-.4-.5 0-.1.3-.3.5-.3z"/>
  <path d="M82.6 77.7c0 .2-.2.4-.4.4s-.5-.2-.5-.4.2-.5.4-.5c.3.1.5.3.5.5z"/>
  <path d="M92.2 51.3c0 .2-.2.4-.5.4-.2 0-.4-.2-.4-.5 0-.2.2-.4.4-.4.3 0 .5.3.5.5z"/>
  <path d="M57.8 11.2c-.3 0-.5-.2-.4-.4 0-.3.2-.4.5-.4.2 0 .4.2.4.4-.1.3-.3.4-.5.4z"/>
  <path d="M57.8 92.2c-.2 0-.4-.3-.4-.5s.2-.4.5-.4c.2 0 .4.2.4.4-.1.3-.3.5-.5.5z"/>
  <path d="M30.6 15.7c0 .2-.3.4-.5.4s-.4-.2-.4-.5c0-.2.2-.4.5-.4.2.1.4.3.4.5z"/>
  <path d="M30.1 86.4c.2 0 .5.2.5.4s-.3.5-.5.4c-.2 0-.4-.3-.4-.5 0-.1.2-.3.4-.3z"/>
</svg>
